<svg width="934" height="934" viewBox="0 0 934 934" fill="none" xmlns="http://www.w3.org/2000/svg">
<path d="M248.16 461.126C248.15 399.569 269.863 339.981 309.472 292.86C349.081 245.74 404.051 214.105 464.685 203.532C343.967 182.734 222.139 250.777 176.739 364.492C133.02 474.101 170.504 602.972 265.76 672.492C294.167 693.038 326.385 707.71 360.531 715.648C394.676 723.58 430.067 724.617 464.619 718.689C403.999 708.096 349.056 676.455 309.459 629.345C269.865 582.231 248.156 522.668 248.156 461.132L248.16 461.126ZM238.66 610.46C160.373 501.298 181.52 341.926 288.592 259.526C172.633 361.073 166.811 542.7 275.858 651.62C261.988 639.276 249.508 625.448 238.655 610.385L238.66 610.46Z" fill="black"/>
<path d="M823.493 465.5C795.119 466.005 766.707 465.817 738.373 464.229C738.373 463.984 738.259 463.76 738.186 463.521C756.254 462.51 774.326 462.119 792.415 462.026C803.071 462.026 837.775 469.062 824.894 447.599C818.191 436.401 797.378 445.359 785.285 447.078C767.701 449.578 749.91 451.37 732.514 454.901L732.29 454.677C749.222 449.078 767.175 446.37 784.743 443.479C789.691 442.693 811.046 442.453 815.098 438.906C819.765 434.818 818.327 429.797 812.52 425.469C804.869 419.87 797.588 425.282 788.905 428.401C769.306 435.381 749.441 441.657 729.17 446.693C749.592 438.964 771.04 432.412 791.088 423.677C793.833 422.485 801.728 421.193 802.437 417.516C805.869 400.156 765.739 420.818 762.806 421.979C749.254 427.375 724.519 442.047 709.962 441.99C699.884 441.99 685.155 434.001 674.847 431.74C639.733 424.011 603.467 421.084 567.587 420.261L567.593 420.251C565.082 401.256 564.317 382.079 565.296 362.944C555.962 364.642 546.629 366.678 537.484 369.012C559.677 361.543 564.29 365.053 567.088 341.35C553.161 344.501 539.41 348.277 525.833 352.678C535.765 348.496 554.973 346.017 563.297 339.501C570 334.257 569.25 325.537 570.875 317.419C551.604 322.554 532.672 328.877 514.187 336.367C528.25 329.247 542.791 323.101 557.698 317.976C574.703 312.059 572.463 307.523 577.542 290.555C551.782 298.341 526.692 308.195 502.52 320.013C521.452 308.69 541.384 299.123 562.067 291.435C581.332 284.138 580.488 278.742 588.78 259.7C554.744 271.007 521.958 285.763 490.926 303.736C512.16 288.944 534.868 276.387 558.686 266.272C568.17 262.168 583.514 259.402 590.998 252.553C598.482 245.704 603.091 231.236 608.471 222.928C563.111 239.059 518.966 260.059 479.278 287.423C506.382 265.188 537.142 247.568 568.876 233.105C582.803 226.777 603.016 222.84 614.814 213.579C626.611 204.318 635.235 188.267 647.142 178C589.48 191.869 532.548 216.172 483.435 249.547C461.466 264.479 410.763 298.416 418.831 331.683C421.743 343.573 431.263 346.167 440.372 352.423L440.378 352.417C450.32 358.855 457.096 369.177 459.044 380.865C462.591 404.387 446.555 421.485 425.446 427.329C376.596 440.751 336.93 469.272 323.711 520.908V520.903C337.476 504.507 355.159 491.851 375.118 484.111C392.326 494.767 404.164 501.231 424.602 506.267C442.186 510.579 456.466 521.95 459.175 540.912C462.909 567.366 444.691 574.511 428.096 588.532C417.305 597.621 416.654 609.158 421.674 621.611C434.742 653.736 471.701 677.351 499.794 694.543V694.538C545.488 722.434 595.232 743.054 647.261 755.674C634.438 744.606 624.376 731.799 613.901 718.658C603.427 705.517 585.041 702.079 569.756 695.174C537.61 680.652 506.641 662.898 479.318 640.496C517.678 666.966 560.198 687.366 603.917 703.33C598.521 694.314 594.23 679.064 586.168 672.584C578.98 666.834 563.99 664.017 555.329 660.173C532.72 650.324 511.146 638.246 490.928 624.132C521.152 641.616 553.042 656.044 586.13 667.194C583.37 660.361 581.839 647.408 577.318 641.882C574.479 638.393 562.777 636.601 558.782 635.049C539.318 627.617 520.547 618.497 502.673 607.798C526.266 619.361 550.741 629.038 575.861 636.73C571.454 620.714 573.361 615.34 556.934 609.569C542.341 604.501 528.106 598.46 514.319 591.481C532.434 598.835 550.986 605.069 569.871 610.148C568.585 602.945 569.199 594.71 564.382 589.221C558.481 582.502 534.423 578.768 525.966 575.2C539.33 579.569 552.883 583.262 566.586 586.397C564.231 562.689 559.773 566.444 537.616 558.881C546.726 561.178 555.928 563.21 565.168 564.892V564.897C564.632 547.678 565.512 530.438 567.799 513.361C633.132 511.866 688.648 502.163 717.519 488.44C739.097 496.294 760.508 504.59 781.753 513.341C784.201 514.331 805.123 522.841 802.66 510.242C802.025 507.086 798.722 507.57 796.894 506.154C790.493 501.19 778.077 499.174 770.556 496.393C756.946 491.352 743.342 486.352 729.769 481.2C748.638 485.903 767.196 491.71 785.545 498.148C792.342 500.518 803.446 507.596 810.504 504.83C816.571 502.476 820.566 493.091 815.676 488.923C812.071 485.861 796.654 486.121 791.706 485.356C773.19 482.481 754.373 479.757 736.342 474.382L736.754 473.731C756.243 477.35 776.082 479.33 795.686 482.226C801.717 483.121 817.112 488.351 822.227 485.621C826.029 483.475 831.107 465.371 823.493 465.501L823.493 465.5Z" fill="black"/>
</svg>
