<svg width="934" height="934" viewBox="0 0 934 934" fill="none" xmlns="http://www.w3.org/2000/svg">
<path d="M420 284.237C399.823 288.81 389.183 303.987 372.083 313.32C361.125 319.367 348.656 321.403 336.484 323.549C338.203 353.008 382.984 340.909 401.818 338.872C419.531 337.007 423.958 327.184 428.698 311.861L437.604 282.814C431.698 282.387 425.76 282.867 420 284.236L420 284.237ZM400.214 310.237L417.724 299.487C417.724 299.487 416.006 312.851 400.214 310.237Z" fill="black"/>
<path d="M687.921 152.241C690.051 169.397 671.118 183.788 656.186 171.897C663.931 181.382 673.322 193.143 665.295 205.351C659.155 214.684 645.618 217.502 636.733 210.111C652.301 228.496 640.467 251.272 619.301 258.028C611.238 243.523 611.722 218.195 631.082 212.331C619.92 214.419 610.284 221.409 604.831 231.367C599.378 241.331 598.68 253.211 602.93 263.736C595.357 263.981 587.785 263.424 580.326 262.08C616.577 222.001 609.149 156.632 564.498 126C576.686 138.281 570.436 161.281 551.43 160.885C563.191 163.63 577.566 167.156 579.092 181.416C580.232 192.614 570.915 203.443 559.342 202.995C582.864 208.052 587.342 233.197 574.801 251.525C559.514 244.9 544.337 224.776 556.134 208.145C550.442 214.348 546.999 222.291 546.363 230.687C545.733 239.088 547.942 247.452 552.645 254.441C547.306 252.577 542.004 250.707 536.609 248.952C537.749 239.264 539.369 229.556 541.406 219.941C537.671 228.92 534.479 238.086 531.624 247.457C527.473 246.27 523.255 245.332 518.989 244.66C520.463 220.915 517.718 186.253 493.286 173.931C514.77 188.863 512.792 221.42 508.218 243.707C500.698 243.696 493.197 244.42 485.817 245.873C480.609 228.868 470.53 212.441 455.953 201.8C468.531 213.857 476 230.581 478.745 247.363C464.938 250.378 451.521 254.967 438.761 261.045C418.636 251.712 399.037 235.509 397.042 211.655C395.272 235.493 412.277 256.457 430.996 269.071C410.277 268.904 368.444 253.82 367.526 228.003C366.052 249.003 393.25 264.216 409.1 272.315C426.178 281.049 449.96 276.476 468.834 277.617C486.996 278.716 504.637 281.799 522.652 283.945C540.365 286.054 563.157 284.674 574.266 268.529L574.261 268.534C584.969 271.039 596.006 271.862 606.964 270.977C664.964 267.243 705.901 207.789 687.922 152.237L687.921 152.241ZM436.134 268.143L436.603 269.075H435.65L436.134 268.143ZM439.139 269.111V269.117C451.988 262.726 465.571 257.929 479.587 254.835C480.051 260.236 479.946 265.674 479.29 271.054C465.926 269.976 452.52 269.377 439.14 269.116L439.139 269.111ZM509.68 274.71C503.201 273.57 496.613 272.846 490.096 272.132V272.137C489.867 265.809 489.107 259.507 487.82 253.304C501.695 250.611 516.003 251.122 529.648 254.799C527.492 262.096 526.138 269.605 525.602 277.2C520.263 276.528 514.976 275.518 509.602 274.622L509.68 274.71ZM564.842 268.757C557.055 275.606 546.06 277.585 536.039 277.679L536.034 277.684C535.221 270.721 535.221 263.684 536.034 256.72C545.836 259.928 557.613 262.319 566.722 267.022C566.128 267.606 565.498 268.153 564.836 268.668L564.842 268.757Z" fill="black"/>
<path d="M401.133 285.317C404.305 285.317 417.242 279.38 408.747 274.994C405.247 277.025 400.992 277.291 397.273 275.697C393.549 274.104 390.799 270.848 389.857 266.911C387.924 270.838 388.138 275.484 390.424 279.218C392.711 282.953 396.752 285.255 401.133 285.317L401.133 285.317Z" fill="black"/>
<path d="M287.466 448.091L301.278 461.903V443.985C296.445 437.058 292.132 428.845 286.346 422.647C279.497 415.178 274.138 419.079 268.597 425.001C256.743 437.636 245.466 450.855 233.936 463.771C218.253 466.797 212.488 483.355 202.764 494.047C209.373 496.027 222.269 498.547 226.733 491.36C229.551 486.844 226.733 485.761 231.103 482.027C235.472 478.292 239.092 479.636 239.035 472.131C249.759 461.641 270.666 431.271 287.467 448.089L287.466 448.091Z" fill="black"/>
<path d="M465.826 658.21L465.53 657.986H465.524C461.076 638.544 459.816 618.508 461.795 598.664C452.524 594.893 443.883 589.737 436.164 583.372C424.519 604.35 426.925 634.502 444.529 651.601C447.368 664.221 442.925 668.309 431.128 669.445C418.211 670.68 405.237 671.721 392.336 673.18C385.221 673.966 362.972 683.747 368.388 689.268C370.085 691.002 379.903 694.231 382.633 693.84C390.565 692.7 392.414 683.945 400.758 691.825C403.112 685.945 413.133 688.841 414.196 682.492L454.945 680.476C458.94 680.273 466.33 681.184 469.018 677.356C472.263 672.789 467.227 662.892 465.826 658.211L465.826 658.21Z" fill="black"/>
<path d="M558.6 602.784C557.501 593.003 551.881 586.393 547.496 578.237C542.944 569.779 539.709 561.435 533.741 553.748H533.736C521.715 538.612 507.35 525.503 491.178 514.92C475.142 504.092 458.569 496.68 444.736 482.68C432.434 470.211 420.766 454.139 418.6 436.259L437.714 416.436C442.944 421.457 451.75 414.774 448.001 408.353C444.251 401.931 433.704 406.394 436.016 413.67L421.923 418.04C446.376 396.253 472.174 344.92 452.762 312.967C460.434 313.805 468.814 312.331 474.955 307.368C470.716 290.717 443.726 290.341 432.934 299.321H432.939C433.116 300.045 433.361 300.748 433.663 301.43C441.111 301.982 447.803 306.17 451.548 312.628C445.772 311.779 440.481 308.92 436.616 304.545C434.038 312.961 432.267 323.681 427.507 331.201C420.038 343.164 406.752 343.128 394.262 344.268C383.96 358.55 368.126 364.971 356.928 378.56L354.428 367.956C361.746 366.316 360.569 354.889 352.97 354.889C345.855 354.889 343.991 365.175 350.657 367.675L341.959 391.94L345.954 394.31C345.022 395.899 344.09 397.503 343.282 399.128C340.053 396.446 335.735 395.456 331.657 396.472C327.584 397.482 324.23 400.378 322.637 404.263C325.772 402.394 329.532 401.888 333.053 402.862C325.366 408.446 319.256 415.925 315.319 424.57C310.918 425.185 307.121 427.966 305.214 431.977C303.313 435.992 303.548 440.69 305.855 444.487C306.194 439.784 308.709 437.654 311.845 434.539C311.173 437.331 310.73 440.169 310.522 443.034C304.23 445.122 304.699 456.195 307.313 460.378L307.308 460.373C307.475 457.586 308.61 454.946 310.522 452.909C310.689 455.003 310.985 457.086 311.418 459.143C309.178 461.383 310.11 467.336 311.157 469.82C311.527 469.987 311.913 470.112 312.314 470.195C312.522 469.185 312.855 468.206 313.303 467.279C313.694 468.529 314.105 469.779 314.538 471.013C319.652 473.571 327.006 474.857 332.568 475.607C333.037 467.508 336.303 457.555 344.438 453.935C337.537 459.919 333.875 468.815 334.563 477.919C324.433 476.81 314.599 473.804 305.574 469.07C296.558 464.591 283.751 451.914 273.246 459.492C264.397 465.893 269.121 480.023 269.756 489.039L269.751 489.044C270.839 506.008 270.756 523.017 269.511 539.97L273.115 542.08C273.115 542.08 273.115 549.267 274.98 549.549C274.365 559.944 277.985 567.298 285.808 556.007C288.886 551.543 289.766 549.174 287.844 544.507C285.772 539.45 277.933 535.418 287.844 532.168C283.011 524.07 277.074 477.699 286.522 475.012C292.886 473.148 308.511 486.809 314.167 490.523C325.703 498.101 337.276 507.679 349.636 513.783C367.948 522.835 366.172 499.804 366.439 488.564C367.783 501.632 368.923 525.898 348.09 515.22C338.756 510.439 329.964 503.627 321.059 498.048C323.048 506.621 325.043 515.199 327.033 523.772C331.455 512.351 343.836 533.59 346.038 536.538C350.2 526.46 363.246 542.7 366.721 545.871L367.507 537.824L367.492 537.819C389.09 554.835 413.554 567.846 439.732 576.235C457.502 589.938 478.336 601.323 500.044 607.277C487.976 606.683 476.085 604.12 464.841 599.698C467.435 635.168 479.924 687.729 512.758 708.114C512.961 723.964 513.321 739.849 513.394 755.677C513.394 766.109 512.425 775.932 506.769 785.172C501.581 793.646 496.8 797.734 493.534 807.254C502.477 807.421 511.284 808.973 510.149 797.025C519.894 797.155 524.018 793.682 524.352 783.958C524.763 772.551 523.029 762.474 525.471 750.974C528.367 737.328 532.117 723.812 535.419 710.26C504.263 685.734 510.091 618.067 549.122 603.859C548.695 602.177 548.283 600.557 547.799 598.932H547.794C548.242 598.005 548.612 597.046 548.914 596.057C549.492 601.656 543.705 626.729 552.085 627.921C552.085 623.817 555.429 624.577 555.429 624.577C565.528 634.358 572.044 630.364 572.809 629.806C563.434 633.525 560.486 619.093 558.601 602.78L558.6 602.784ZM442.402 408.717C443.902 408.842 445.064 410.098 445.064 411.603C445.064 413.113 443.903 414.368 442.402 414.488C440.897 414.368 439.741 413.113 439.741 411.603C439.741 410.098 440.897 408.842 442.402 408.717ZM411.976 385.889C420.377 385.889 420.377 399.124 411.976 399.124C403.575 399.124 403.314 385.889 411.976 385.889ZM383.788 370.192C392.189 370.192 392.189 383.406 383.788 383.406C375.387 383.411 375.199 370.192 383.788 370.192ZM352.892 358.64H352.897C354.397 358.76 355.553 360.015 355.553 361.52C355.553 363.031 354.397 364.286 352.897 364.406C351.392 364.286 350.236 363.031 350.236 361.52C350.236 360.015 351.392 358.76 352.897 358.64H352.892ZM346.433 390.374L352.032 374.62L356.454 393.287L378.856 386.307L384.288 409.119L406.689 402.156L412.142 424.984L429.522 419.588L417.184 432.374L346.433 390.374Z" fill="black"/>
<path d="M383.787 379.677C385.376 379.677 386.662 378.391 386.662 376.802C386.662 375.214 385.376 373.927 383.787 373.927C382.199 373.927 380.912 375.214 380.912 376.802C380.912 378.391 382.199 379.677 383.787 379.677Z" fill="black"/>
<path d="M411.974 395.451C413.474 395.331 414.635 394.076 414.635 392.565C414.635 391.06 413.474 389.805 411.974 389.685C410.469 389.805 409.312 391.06 409.312 392.565C409.312 394.075 410.469 395.331 411.974 395.451Z" fill="black"/>
</svg>
