<svg width="934" height="934" viewBox="0 0 934 934" fill="none" xmlns="http://www.w3.org/2000/svg">
<path d="M517.854 624.149C517.854 623.587 517.89 623.029 517.968 622.467C517.968 623.081 517.854 623.701 517.838 624.331C517.838 624.258 517.854 624.201 517.854 624.149V624.149Z" fill="black"/>
<path d="M813.587 241.163C805.618 222.329 786.056 208.944 765.426 209.428C760.759 191.86 734.347 206.069 723.295 207.246C705.546 209.1 687.607 207.756 670.336 203.266C685.476 230.928 735.915 246.053 760.722 222.417C766.154 227.271 777.524 225.422 784.352 229.381C789.175 232.214 793.285 236.105 796.373 240.766C800.68 247.224 802.868 254.865 802.628 262.626C802.394 270.381 799.743 277.877 795.05 284.058C778.248 305.861 750.586 300.225 734.774 281.501C720.383 264.438 707.837 249.657 685.305 242.803C669.971 238.241 653.69 237.929 638.195 241.908C622.701 245.882 608.576 253.991 597.332 265.372C591.425 264.002 585.259 264.257 579.482 266.106C573.711 267.955 568.545 271.335 564.534 275.882C559.216 282.023 551.466 299.366 558.263 306.83C565.732 315.08 569.201 308.564 571.873 301.695C575.492 292.361 572.841 282.263 586.133 279.725C575.706 296.767 571.367 316.835 573.81 336.657C555.57 342.808 538.591 352.209 523.69 364.397L522.101 362.736C537.241 346.309 543.847 321.913 547.039 300.372C550.08 279.71 543.716 255.569 561.56 240.45C569.924 233.357 582.987 228.242 592.565 236.174C598.331 240.956 597.68 256.092 607.201 255.216C620.269 254.002 611.16 234.814 606.717 229.325C598.415 219.096 586.133 216.018 573.457 217.643L573.254 218.112C543.743 225.148 534.54 250.237 533.868 277.341C533.29 300.32 529.181 324.57 516.972 344.429C519.66 324.304 517.608 303.622 513.238 283.893C509.618 267.617 500.379 252.309 504.54 235.362V235.357C506.504 226.977 510.915 219.368 517.212 213.497C521.134 209.914 530.113 207.148 530.389 200.934C531.306 180.194 501.962 207.414 498.654 212.283C477.654 242.841 498.134 274.07 502.05 306.253C505.576 335.279 499.305 355.477 487.66 380.919C487.024 374.836 484.055 323.237 480.977 322.903C479.613 322.752 474.686 375.898 474.092 381.685C462.035 356.971 456.415 335.018 459.753 306.903C463.581 274.591 484.243 242.841 463.206 212.247C459.284 206.534 435.206 181.799 431.826 198.977C430.295 206.576 440.076 209.336 444.592 213.461H444.602C450.123 218.586 454.233 225.044 456.529 232.221C462.128 249.825 453.186 264.57 449.175 281.242C444.264 301.773 442.024 323.502 444.826 344.487C432.618 324.627 428.514 300.378 428.024 277.399C427.352 250.317 418.221 225.227 388.638 218.17L388.435 217.686C376.862 216.378 366.034 218.451 357.503 227.019C352.498 232.076 341.358 250.128 352.873 254.55C363.159 258.508 363.607 241.019 369.337 236.2C377.941 228.955 389.868 232.674 398.14 238.606C417.478 252.57 411.749 275.398 414.249 295.82C417.145 319.32 424.009 343.888 439.432 362.388L438.817 364.924C423.79 352.471 406.598 342.894 388.098 336.679C390.546 316.856 386.202 296.783 375.781 279.747C389.333 282.434 386.978 292.012 390.041 301.716C392.15 308.492 396.593 315.643 403.65 306.852C410.035 298.899 402.942 282.341 397.379 275.904L397.374 275.898C393.374 271.336 388.212 267.951 382.431 266.096C376.655 264.247 370.483 264.003 364.577 265.393C353.337 254.008 339.213 245.888 323.717 241.915C308.222 237.935 291.935 238.243 276.602 242.805C253.862 249.618 241.263 264.384 226.946 281.482C211.154 300.352 183.399 305.561 166.67 284.04H166.675C160.16 275.597 157.597 264.759 159.639 254.295C161.68 243.826 168.123 234.742 177.332 229.368C184.165 225.352 195.572 227.217 201.004 222.404C225.864 246.014 276.264 230.951 291.384 203.254C274.113 207.738 256.176 209.087 238.425 207.228C227.373 206.05 200.961 191.848 196.295 209.41C162.284 208.644 137.065 242.863 145.893 275.118C154.852 307.951 194.539 323.93 223.472 305.415C238.295 295.915 244.956 278.629 258.941 268.082C285.988 247.551 325.525 250.051 350.54 272.618C344.353 278.285 340.306 285.91 339.076 294.212L339.431 294.55C338.524 305.561 341.123 316.577 346.852 326.023C352.582 335.471 361.15 342.867 371.336 347.154C368.909 358.446 365.123 369.555 362.003 380.753C342.571 386.857 312.071 398.409 300.831 371.289C296.092 359.867 302.998 346.273 315.914 345.325C328.534 344.409 330.195 359.383 339.659 359.419C352.857 359.419 345.56 345.007 340.758 340.153C332.289 331.747 319.998 328.466 308.466 331.528C285.581 337.799 279.143 363.112 289.799 382.435H290.32C305.252 403.773 334.039 410.247 356.998 398.58L333.664 480.471C324.331 513.383 310.05 551.929 345.425 575.763C404.185 615.372 464.143 532.347 414.493 485.68C397.597 469.883 385.649 450.659 399.149 427.549C405.503 416.721 416.383 409.32 428.789 407.388C446.502 404.55 453.221 413.977 467.299 420.456C468.784 425.237 469.117 430.305 468.268 435.237C455.034 414.295 422.476 416.831 412.565 439.513C415.289 435.779 440.32 421.633 443.065 433.524V433.018C443.065 459.712 438.248 486.534 438.248 513.284C437.909 537.549 438.565 561.814 440.284 585.956C439.966 581.289 439.669 576.622 439.425 571.956C439.742 578.544 439.987 585.19 440.696 591.742L440.305 586.029C440.529 589.149 440.753 592.899 441.013 596.107H441.019C437.039 597.768 433.175 599.68 429.446 601.841C436.784 605.414 441.946 612.32 443.295 620.377V619.445C444.305 624.205 444.436 629.263 445.029 634.081L432.857 627.826L480.847 741.805L530.133 627.919L516.581 634.883C517.253 629.638 517.311 623.945 518.597 618.795V618.79C518.232 620.222 518.024 621.685 517.962 623.159C518.342 618.701 519.8 614.399 522.217 610.633L522.102 610.784V610.779C524.649 607.014 528.118 603.967 532.186 601.935C527.613 599.321 522.852 598.295 520.764 594.076C517.498 587.43 522.462 567.811 522.779 559.691C523.602 538.972 523.67 518.243 522.982 497.513C522.383 479.185 518.258 459.435 519.248 441.232C519.675 433.466 518.352 431.654 527.014 430.034C535.097 428.56 544.3 433.003 549.04 439.519C539.165 416.857 506.592 414.279 493.338 435.243L493.343 435.237C492.499 430.31 492.832 425.253 494.312 420.477C507.041 414.691 513.686 405.545 529.572 406.832C543.26 407.967 555.545 415.676 562.52 427.515C575.869 450.343 564.384 469.681 547.774 485.269C499.41 530.613 554.139 613.452 614.118 577.092C651.249 554.597 638.254 515.587 628.754 482.212L604.9 398.493C627.952 410.045 656.624 403.775 671.577 382.348H672.119C682.405 362.936 676.431 337.769 653.452 331.441L653.447 331.436C641.91 328.374 629.619 331.655 621.149 340.061C616.144 345.139 609.54 359.364 622.248 359.327C631.879 359.327 632.832 344.28 645.994 345.233C659.156 346.187 665.947 359.703 661.076 371.197C649.634 398.208 619.451 386.801 599.904 380.661C596.748 369.463 592.977 358.426 590.571 347.062H590.576C600.748 342.76 609.3 335.354 615.014 325.901C620.727 316.442 623.305 305.427 622.383 294.422L622.722 294.068H622.717C621.472 285.839 617.441 278.287 611.295 272.672C621.29 263.771 633.535 257.776 646.696 255.339C659.863 252.906 673.441 254.12 685.961 258.859C703.711 265.729 712.097 277.786 723.576 291.526C760.852 336.141 838.133 298.974 813.587 241.166L813.587 241.163ZM384.414 356.017C384.825 354.601 385.179 353.163 385.513 351.705C399.737 356.975 413.127 364.272 425.273 373.361C409.663 371.788 393.898 372.788 378.606 376.324L384.414 356.017ZM360.835 320.548C353.856 310.694 349.767 292.793 360.387 283.756C370.241 297.72 374.866 314.704 373.455 331.729C368.439 329.037 364.116 325.208 360.835 320.547L360.835 320.548ZM435.502 391.799V391.804C421.095 391.892 407.251 397.413 396.742 407.268C386.226 417.117 379.82 430.574 378.794 444.945C377.038 471.248 391.19 482.278 406.96 499.081C448.419 543.002 373.059 601.321 342.054 551.665C327.808 528.853 345.955 491.28 352.543 468.17L373.991 392.832H373.996C384.965 389.821 396.236 388.071 407.595 387.603C418.793 387.228 430.574 392.493 441.194 391.842V392.181C439.256 391.879 437.35 391.785 435.449 391.785L435.502 391.799ZM450.996 455.752L450.752 455.491C453.46 451.757 466.096 444.294 470.465 449.893C466.059 456.08 458.017 458.486 450.938 455.736L450.996 455.752ZM511.699 455.491C507.235 461.09 494.672 453.627 492.006 449.893C496.412 444.2 508.975 451.705 511.642 455.476L511.699 455.491ZM575.688 351.871L576.251 351.647C578.115 359.934 580.803 368.095 583.136 376.267V376.273C567.85 372.731 552.084 371.731 536.47 373.304C548.49 364.408 561.667 357.195 575.631 351.856L575.688 351.871ZM623.98 519.725C632.548 549.798 604.36 576.49 574.792 569.303C545.839 562.246 533.262 526.653 551.366 503.001C565.663 484.334 583.267 477.037 583.267 448.755C583.116 432.922 576.434 417.849 564.803 407.105C553.167 396.36 537.615 390.891 521.819 391.99V391.73C545.543 389.417 563.912 386.391 587.788 392.74L623.98 519.725ZM600.871 320.551C597.605 325.213 593.298 329.046 588.288 331.754C586.881 314.724 591.506 297.744 601.355 283.781C611.939 292.776 607.85 310.677 600.871 320.552V320.551Z" fill="black"/>
<path d="M444.574 630.523C444.495 628.762 444.292 627.012 443.975 625.278C444.162 627.033 444.271 628.788 444.574 630.523Z" fill="black"/>
</svg>
