<svg width="934" height="934" viewBox="0 0 934 934" fill="none" xmlns="http://www.w3.org/2000/svg">
<path d="M413.12 265.025H412.428C412.657 265.046 412.886 265.046 413.12 265.025Z" fill="black"/>
<path d="M539.467 379.918H540.197H538.066C538.572 379.882 539.035 379.918 539.467 379.918H539.467Z" fill="black"/>
<path d="M726.974 281.798C732.302 277.527 735.552 271.184 735.911 264.366C736.265 257.543 733.692 250.897 728.838 246.09C729.901 250.814 729.51 255.741 727.718 260.241C725.932 264.736 722.828 268.585 718.817 271.293L695.276 249.528C699.948 245.048 702.609 238.877 702.656 232.408C702.708 225.939 700.141 219.725 695.536 215.178C700.688 237.58 672.52 253.876 655.834 237.58C656.646 241.121 658.266 244.423 660.579 247.231L654.157 247.903C650.563 244.913 646.099 243.168 641.438 242.923C636.771 242.673 632.152 243.944 628.266 246.538C636.662 244.528 645.167 249.455 647.605 257.741C621.359 258.955 597.615 277.548 586.433 300.673C571.198 332.277 585.37 365.168 600.49 393.804C568.959 390.476 550.667 430.574 573.927 452.246C561.162 436.902 570.547 412.84 590.334 410.246L617.995 436.94C632.053 450.513 637.277 468.841 639.017 488.388C640.475 504.981 638.272 521.221 627.819 534.549C610.871 556.033 584.007 555.997 562.97 540.408C564.407 520.08 551.006 498.018 544.658 478.81C533.064 443.846 521.663 410.435 527.428 372.727C534.673 386.243 556.288 378.326 553.152 363.394C548.131 372.164 541.017 364.383 540.293 357.998C539.564 351.612 540.293 344.596 540.293 338.06C540.48 349.258 555.637 354.134 562.168 344.764C557.938 344.196 554.22 341.68 552.115 337.967C550.011 334.258 549.766 329.774 551.454 325.857C550.876 325.857 549.85 323.993 549.85 323.993C564 321.154 572.084 303.347 558.36 293.774V293.769C563.126 292.936 567.407 290.352 570.36 286.524C562.444 285.534 556.063 278.217 554.814 270.617C560.48 268.55 564.871 263.972 566.704 258.227C561.251 259.591 554.647 257.164 550.574 253.487V253.482C557.152 252.576 562.792 248.341 565.506 242.284C556.901 243.367 548.464 236.57 546.016 228.675H546.021C547.157 224.664 545.87 220.352 542.714 217.628C542.547 224.701 534.053 229.779 528.266 224.946C533.605 221.643 541.428 208.05 530.86 205.738C531.756 211.336 527.573 217.498 522.683 219.94H522.688C524.136 218.258 525.131 216.232 525.579 214.06C527.443 206.128 520.407 195.675 511.485 200.003C516.543 203.122 518.204 210.232 516.116 215.591L515.912 215.367H478.579C478.579 215.367 478.204 228.434 440.5 228.434C440.5 228.434 437.084 249.694 448.396 257.929C453.006 247.007 464.656 244.06 464.954 258.939H433.219C429.839 258.939 424.948 259.872 421.646 258.939C411.156 255.992 416.532 242.851 424.224 247.346C416.979 232.414 394.058 245.049 402.646 259.257C406.38 265.585 413.119 265.117 419.448 265.137H464.828C464.042 274.471 451.333 267.21 445.677 265.434L445.667 265.429C441.464 269.231 439.526 274.934 440.532 280.512H464.182C462.578 292.027 456.083 296.058 445.385 294.996C432.468 293.709 421.546 294.173 411.468 303.412L364.916 244.876C364.916 228.47 368.426 207.898 364.41 191.903C365.572 189.07 365.525 185.888 364.28 183.091C363.035 180.294 360.702 178.127 357.822 177.101C358.936 179.283 359.306 181.778 358.863 184.195C355.634 181.992 351.666 181.148 347.817 181.841C347.41 178.544 345.567 175.596 342.775 173.794C339.983 171.992 336.541 171.518 333.369 172.507C338.671 175.117 341.035 181.403 338.759 186.862C335.546 186.029 332.145 186.331 329.129 187.721C326.671 185.763 323.509 184.909 320.4 185.362C317.291 185.815 314.504 187.534 312.702 190.112C316.405 189.414 320.218 190.555 322.931 193.169C317.03 202.315 324.462 217.435 336.295 215.268V216.075C333.254 216.56 330.347 217.7 327.785 219.419C333.759 218.804 336.504 226.513 332.061 230.133C328.181 233.289 321.405 230.45 322.243 224.888C312.389 238.476 321.441 249.398 331.8 257.669C339.493 263.174 320.227 263.924 320.191 263.924C311.811 266.726 304.024 276.112 305.259 285.394C306.285 267.79 331.395 264.863 336.994 281.362C342.593 297.862 320.191 310.389 308.994 296.726L308.989 296.716C311.707 300.69 315.66 303.659 320.233 305.159C324.811 306.664 329.754 306.612 334.301 305.023C341.489 302.466 342.103 296.622 347.145 292.721C358.515 283.893 355.958 304.2 355.958 310.268H355.952C349.989 310.492 344.603 313.903 341.854 319.205C339.109 324.507 339.421 330.877 342.682 335.877C334.656 322.809 355.078 310.773 362.505 324.153C360.416 318.924 368.103 314.914 371.051 319.914C374.171 325.273 365.452 330.309 362.65 324.466C368.473 335.664 353.317 346.736 344.322 337.903V337.914C347.458 341.216 351.817 343.075 356.369 343.054C360.921 343.033 365.265 341.132 368.369 337.799V338.283H379.869H379.864C376.817 342.221 371.63 343.83 366.895 342.299C368.005 346.184 370.791 349.367 374.494 350.976C378.197 352.591 382.427 352.46 386.025 350.627V356.789C380.427 354.137 373.463 359.028 373.333 365.096V365.091C376.848 363.237 381.151 363.773 384.104 366.434C378.02 376.945 358.718 369.981 361.312 357.7C358.978 360.877 358.426 365.033 359.858 368.71C361.286 372.387 364.499 375.075 368.369 375.841C336.093 403.841 300.218 367.382 265.702 372.763C259.525 367.388 248.4 370.783 247.448 379.388C254.036 374.533 264.25 378.419 265.161 386.856C264.281 387.627 263.505 388.507 262.843 389.471C254.557 381.221 242.666 395.632 247.182 404.179C248.859 398.507 254.656 395.116 260.416 396.434C260.156 399.736 261.041 403.033 262.921 405.767C261.401 408.512 261.088 411.767 262.052 414.757C263.02 417.741 265.177 420.2 268.015 421.538C266.646 418.017 267.093 414.049 269.208 410.919C273.63 412.747 278.672 412.288 282.687 409.684H307.327C301.196 413.663 294.269 416.247 287.035 417.262C284.852 433.669 321.045 422.861 323.956 410.45C327.456 414.934 326.951 421.346 322.8 425.236C325.664 426.434 328.893 426.393 331.727 425.122C334.56 423.846 336.732 421.455 337.732 418.518C339.862 428.934 354.029 431.585 360.336 423.429C353.784 421.788 345.404 407.898 357.034 407.153C356.117 419.065 369.445 427.503 379.717 420.705V420.7C377.706 418.08 377.321 414.564 378.717 411.58C380.107 408.591 383.05 406.622 386.342 406.476C395.039 406.231 398.68 417.94 391.383 422.621C396.982 428.22 403.404 410.507 404.597 409.647C413.539 403.283 409.915 416.106 407.435 420.345C412.399 420.007 417.368 413.887 419.305 405.559L491.341 502.46C475.94 489.288 455.368 483.867 435.472 487.731C428.701 484.845 420.993 485.132 414.456 488.517C417.94 488.559 421.378 489.345 424.534 490.83C420.93 492.168 417.461 493.845 414.174 495.83C407.544 493.142 400.06 493.517 393.732 496.861C398.383 496.929 402.914 498.319 406.8 500.871C403.628 503.429 391.362 513.246 391.362 518.345C378.295 531.636 355.3 519.428 358.977 501.094C355.399 507.672 355.123 515.553 358.237 522.365C361.352 529.177 367.487 534.125 374.805 535.719C370.883 542.25 364.331 546.771 356.832 548.115C363.9 553.563 373.233 555.068 381.655 552.131C381.597 556.974 382.05 561.813 383.019 566.557C381.03 566.969 379.42 568.427 378.811 570.365C378.207 572.302 378.691 574.417 380.087 575.891C379.603 573.177 381.123 570.505 383.712 569.547C383.972 570.594 384.29 571.656 384.587 572.703V572.698C383.056 573.5 381.978 574.958 381.665 576.662C381.358 578.36 381.847 580.11 383.004 581.396C382.551 579.11 383.571 576.782 385.561 575.558C386.045 576.865 386.551 578.172 387.092 579.438H387.087C385.754 580.344 384.868 581.782 384.67 583.38C384.467 584.985 384.972 586.594 386.045 587.802C385.649 585.641 386.556 583.453 388.358 582.203C390.389 586.406 392.894 590.365 395.827 594C369.545 601.766 340.572 607.776 332.791 638.631C335.4 637.079 338.291 636.058 341.301 635.626C339.202 642.496 340.332 649.943 344.379 655.88C342.671 648.828 344.27 641.386 348.728 635.662C350.186 633.73 351.952 632.052 353.957 630.698C352.78 635.219 352.952 639.985 354.452 644.412C355.952 648.833 358.712 652.724 362.395 655.599L384.531 633.479C389.494 638.443 388.546 646.547 385.765 652.5C384.385 655.547 382.359 658.25 379.828 660.433C386.697 659.61 392.88 655.86 396.781 650.146C408.708 644.323 417.948 632.318 422.614 620.037C422.708 620.125 422.797 620.219 422.875 620.318C421.849 625.396 424.739 639.375 431.963 639.375C429.948 627.823 441.052 616.974 452.494 619.162V619.35C453.78 619.35 452.869 619.068 454.358 619.553H454.364C456.176 624.417 456.244 629.766 454.551 634.673C459.536 628.303 459.645 619.381 454.812 612.891C455.671 608.173 455.004 603.298 452.905 598.985C450.806 594.672 447.39 591.141 443.145 588.901C443.067 581.584 445.004 574.38 448.744 568.089C449.035 568.871 449.4 569.626 449.848 570.329C451.952 566.277 455.358 563.053 459.515 561.162C457.879 561.048 456.296 560.537 454.905 559.673C456.608 557.912 458.437 556.277 460.374 554.782C462.942 555.277 465.218 556.751 466.723 558.886C469.582 556.532 470.926 552.803 470.233 549.162C473.775 547.693 477.509 546.735 481.317 546.308C474.661 554.73 470.28 564.724 468.609 575.335C466.395 575.486 464.452 576.856 463.567 578.892C462.682 580.923 463.01 583.283 464.405 585.001C464.812 583.048 466.171 581.423 468.031 580.689C467.656 584.793 467.765 588.928 468.348 593.012C466.062 593.038 463.994 594.366 463.025 596.434C462.051 598.501 462.353 600.944 463.791 602.715C464.307 600.116 466.505 598.189 469.15 598.012C469.447 599.449 469.801 600.866 470.197 602.288H470.192C466.234 606.996 463.973 612.902 463.78 619.048C463.583 625.199 465.463 631.235 469.114 636.188C466.906 638.125 463.624 638.203 461.327 636.37C461.327 641.969 469.093 644.563 472.228 639.672C472.583 640.026 472.958 640.365 473.312 640.683C466.208 646.37 456.765 648.198 448.057 645.573C457.594 664.485 485.188 665.38 495.958 647.198L495.38 646.657C495.755 646.657 496.073 646.542 496.406 646.49H496.401C496.281 646.74 496.13 646.98 495.953 647.198C506.573 657.933 521.771 669.505 514.115 686.568C509.635 696.573 496.027 704.338 487.703 711L487.817 711.114C468.703 714.718 460.749 738.63 473.932 752.964H473.927C471.13 746.136 471.427 738.433 474.729 731.833C478.036 725.239 484.031 720.39 491.177 718.541C484.067 722.104 479.031 728.781 477.551 736.593C476.072 744.406 478.322 752.463 483.635 758.375C480.723 751.385 481.057 743.463 484.546 736.744C482.812 750.556 496.473 762.432 509.39 762.353H509.395C504.364 757.254 501.765 750.249 502.26 743.103C502.755 735.962 506.291 729.373 511.968 725.02L513.203 725.749L514.249 724.478C514.046 724.187 513.703 724.025 513.354 724.046C513.421 723.973 513.51 723.921 513.614 723.9C514.265 723.489 514.937 723.098 515.63 722.744L514.77 723.827L515.197 724.593V724.588C519.171 725.989 522.734 728.358 525.562 731.478C523.916 727.64 521.354 724.265 518.093 721.661C520.817 720.588 523.718 720.035 526.64 720.035C524.984 718.39 523.098 716.994 521.041 715.89L523.729 712.603C537.655 716.035 539.874 735.901 526.77 742.098C546.65 740.025 557.609 716.562 546.182 699.983L546.187 699.988C552.932 701.978 557.88 707.733 558.844 714.696C564.193 712.78 568.333 708.462 570.026 703.04C571.719 697.613 570.771 691.707 567.469 687.087C572.713 689.295 576.177 694.373 576.333 700.061C581.864 696.644 584.364 689.905 582.401 683.706C586.713 683.56 590.755 681.555 593.479 678.206C596.203 674.852 597.343 670.493 596.604 666.237C589.135 676.654 573.849 662.805 583.703 654.18H583.708C584.739 654.31 585.76 654.539 586.75 654.867C583.682 649.466 577.609 646.498 571.463 647.404L561.645 640.123C562.802 639.461 563.942 638.774 565.062 638.05H565.057C563.838 637.003 562.671 635.893 561.567 634.727C566.437 634.149 571.286 635.925 574.635 639.503C576.02 634.753 575.072 629.623 572.067 625.685C569.067 621.748 564.369 619.472 559.421 619.55C564.718 615.67 567.025 608.894 565.208 602.581C561.369 606.487 555.765 608.091 550.448 606.805C545.13 605.518 540.875 601.534 539.245 596.31L539.021 596.534C538.5 582.607 561.067 589.065 554.703 599.575H554.698C556.995 597.466 558.354 594.523 558.469 591.409C558.584 588.289 557.448 585.258 555.313 582.982C560.735 579.805 562.672 572.914 559.703 567.378C560.693 573.258 553.802 577.534 548.688 575.701C552.683 568.102 557.516 560.507 560.391 552.389C601.068 579.175 647.079 549.311 650.308 504.211C651.178 487.81 648.725 471.405 643.105 455.977C640.064 447.112 638.084 442.909 638.605 434.007L641.069 392.21C670.282 393.46 668.303 439.101 640.902 443.038C665.803 442.611 681.595 415.038 669.834 393.251C657.85 371.038 625.183 369.954 611.761 391.387C601.177 371.543 589.157 348.903 591.042 325.627C592.667 305.465 605.865 287.304 622.963 277.096V277.091C627.531 283.143 634.927 286.377 642.474 285.612C650.021 284.851 656.619 280.205 659.886 273.356C661.548 279.497 668.209 298.633 661.584 303.726C654.115 309.476 649.975 297.788 650.87 292.304C646.579 295.872 638.308 303.038 640.12 309.331C642.454 317.393 655.782 317.565 662.522 316.799C662.522 316.799 655.819 341.887 670.996 348.215C662.037 341.7 678.891 316.893 682.193 311.309C692.329 294.303 693.563 324.746 686.225 326.689C706.531 335.09 708.735 314.741 712.621 300.105C718.09 279.574 736.423 303.672 720.09 312.089C734.292 306.172 733.6 293.813 726.975 281.792L726.974 281.798ZM481.267 229.272L479.215 224.12L492.917 224.365L481.267 229.272ZM632.134 278.438C629.342 278.438 626.602 277.709 624.181 276.329C631.071 272.272 638.779 269.798 646.749 269.089C644.123 274.792 638.41 278.443 632.134 278.438H632.134Z" fill="black"/>
</svg>
