<svg width="934" height="934" viewBox="0 0 934 934" fill="none" xmlns="http://www.w3.org/2000/svg">
<path d="M324.001 348.925C324.152 353.852 324.391 358.764 324.709 363.69C332.605 368.154 340.392 372.873 348.417 377.092C349.292 385.696 350.151 394.285 351.313 402.852L368.116 419.654C359.418 420.644 351.11 422.363 343.366 426.691C336.871 421.092 330.111 415.753 323.393 410.415C314.992 413.139 306.59 415.826 298.248 418.722L290.367 421.462C283.966 416.759 277.56 412.128 271.029 407.498L269.164 409.045C275.898 416.513 282.591 424.034 289.247 431.613C299.866 429.988 310.492 428.493 321.091 426.873C327.7 434.659 334.512 442.289 341.137 450.056L341.143 450.061C348.742 448.389 356.435 447.139 364.173 446.327C371.033 431.905 380.095 418.633 391.037 406.999C384.115 404.79 377.308 402.228 370.652 399.327C367.892 389.097 365.313 378.796 362.699 368.581C352.991 365.316 343.303 361.972 333.616 358.649C331.189 348.102 328.465 337.613 325.981 327.081H325.793L325.798 327.086C326.163 326.748 326.668 326.597 327.158 326.675C330.554 336.159 333.819 345.716 337.09 355.216C347.507 357.773 357.887 360.424 368.283 363.018C371.596 372.69 374.835 382.382 378.007 392.101C385.643 393.518 393.221 395.351 400.69 397.512C412.534 386.82 425.95 378.007 440.466 371.382C434.924 366.72 429.638 361.772 424.617 356.559C425.981 346.049 427.528 335.58 429.059 325.106C421.33 318.387 413.679 311.59 405.986 304.814C407.564 294.1 409.246 283.392 411.028 272.688L408.58 272.428C403.95 283.496 399.788 294.829 395.83 306.027C401.429 313.214 406.898 320.439 412.632 327.511C410.112 335.781 407.591 344.047 405.445 352.412C408.45 359.709 411.549 366.953 414.481 374.272C405.95 372.032 397.793 370.256 388.888 371.303C385.008 363.631 380.826 356.147 376.659 348.621C367.867 347.928 359.075 347.162 350.263 346.756L342.049 346.308C337.961 339.475 333.836 332.699 329.508 326.016L328.237 326.391L244.857 241.12C246.997 239.219 248.831 236.995 250.289 234.532C251.997 231.235 252.596 227.48 252.008 223.818C251.102 218.521 247.831 213.922 243.122 211.329L227.518 202.501L169.445 169.589L154.289 161L176.106 198.937L203.992 247.468H203.997C205.283 250.02 207.002 252.333 209.075 254.301C215.559 259.718 224.992 259.718 231.476 254.301L324.001 348.925Z" fill="black"/>
<path d="M680.854 538.538C683.188 536.445 685.354 534.164 687.328 531.726C695.505 534.398 703.755 536.768 712.005 539.195C718.688 533.429 725.484 527.773 732.052 521.892L738.193 516.402C745.922 518.267 753.63 520.246 761.412 521.892L762.568 519.746C753.469 515.418 744.39 511.027 735.333 506.585C726.187 512.184 717.041 517.783 707.745 523.142C698.578 518.642 689.433 514.054 680.324 509.439C673.923 513.825 667.256 517.84 660.537 521.627H660.542C659.725 537.596 656.438 553.335 650.803 568.294C658.063 567.715 665.251 567.471 672.548 567.585C678.855 576.08 685.277 584.517 691.627 592.992C701.819 592.284 712.048 591.669 722.257 591.033C728.867 599.601 735.117 608.507 741.445 617.299L743.31 615.752C738.758 604.663 733.774 593.763 728.565 582.955C719.549 581.835 710.549 580.6 701.518 579.632C697.414 572.017 693.362 564.397 688.992 556.949L678.164 552.449L670.961 549.465V549.459C669.648 549.001 668.362 548.459 667.117 547.834C672.122 545.418 676.752 542.287 680.857 538.537L680.854 538.538Z" fill="black"/>
<path d="M599.388 723.752C590.675 717.429 582.06 711.043 573.533 704.601C574.32 694.408 574.95 684.2 575.716 674.008L575.721 674.003C569.2 669.794 562.908 665.247 556.866 660.377C541.856 665.705 526.117 668.69 510.2 669.226C513.523 675.705 516.491 682.294 519.158 688.975C513.877 698.158 508.444 707.251 503.013 716.325C507.591 725.497 512.101 734.694 516.543 743.913C511.09 753.246 505.345 762.465 499.611 771.689L501.757 772.845C510.268 764.428 518.56 755.689 526.413 746.709C524.023 737.954 521.726 729.141 519.153 720.444C524.606 713.725 530.09 707.058 535.319 700.173L535.325 676.485C542.21 681.897 549.289 686.641 557.835 689.011C558.471 697.579 559.46 706.09 560.429 714.642C568.304 718.637 576.126 722.725 584.08 726.569L591.549 730.137C592.741 738.011 593.918 745.871 595.283 753.694L598.866 754.069L597.726 753.918C598.158 743.871 598.793 733.793 599.387 723.751L599.388 723.752Z" fill="black"/>
<path d="M418.494 698.898L418.213 697.164C425.905 690.445 433.629 683.763 441.395 677.117C439.791 669.518 438.614 661.847 437.661 654.123V654.117C423.245 647.237 409.978 638.159 398.333 627.221C396.125 634.149 393.562 640.956 390.661 647.623C380.432 650.368 370.131 652.941 359.916 655.555C356.655 665.263 353.359 674.956 350.02 684.638C339.437 686.992 328.963 689.789 318.416 692.273L319.088 694.606C331.072 694.7 343.093 694.31 355.057 693.523C359.557 685.627 364.167 677.805 368.495 669.815C377.083 668.94 385.667 668.081 394.219 666.919L411.021 650.211L411.026 650.217C411.698 658.868 414.12 667.285 418.141 674.971C412.542 681.523 407.219 688.226 401.865 694.961C404.589 703.341 407.276 711.763 410.172 720.086L412.881 727.872C408.178 734.273 403.547 740.68 398.917 747.211L400.464 749.075C407.932 742.299 415.51 735.654 423.031 728.993C421.422 718.967 420.006 708.925 418.495 698.899L418.494 698.898Z" fill="black"/>
<path d="M294.507 607.952C300.814 599.238 307.199 590.624 313.657 582.097C323.829 582.884 334.021 583.514 344.193 584.279C348.449 577.764 353.079 571.529 357.855 565.389L357.86 565.394C352.537 550.383 349.553 534.645 349.011 518.727C342.553 522.05 335.943 524.982 329.262 527.686C320.079 522.404 311.007 516.972 301.912 511.54C292.73 516.092 283.543 520.629 274.324 525.071C264.991 519.618 255.772 513.873 246.57 508.139L245.393 510.285C253.83 518.795 262.549 527.087 271.529 534.941C280.284 532.55 289.097 530.253 297.794 527.68C304.513 533.133 311.179 538.618 318.086 543.847H341.701C336.305 550.733 331.544 557.811 329.175 566.358C320.607 566.993 312.096 567.983 303.544 568.951C299.549 576.826 295.461 584.649 291.632 592.602L288.049 600.071C280.19 601.264 272.33 602.441 264.492 603.805L264.117 607.352L264.268 606.253C274.403 606.722 284.445 607.352 294.508 607.951L294.507 607.952Z" fill="black"/>
<path d="M434.734 321.165L436.135 322.228C435.348 332.399 434.718 342.592 433.953 352.764C440.484 356.982 446.703 361.649 452.843 366.425L452.838 366.43C467.849 361.107 483.587 358.123 499.505 357.581C496.182 351.123 493.25 344.513 490.562 337.832C495.843 328.65 501.276 319.556 506.693 310.446C502.141 301.28 497.49 292.134 493.162 282.858C498.761 273.525 504.36 264.342 510.094 255.14L507.948 253.926C499.474 262.4 491.146 271.098 483.308 280.062C485.699 288.817 487.975 297.63 490.569 306.328C485.116 313.046 479.61 319.713 474.386 326.62V350.234C467.459 344.802 460.422 340.156 451.985 337.672C451.334 329.125 450.344 320.609 449.37 312.078C441.532 308.047 433.673 303.995 425.719 300.167L418.251 296.584C417.074 288.724 415.881 280.865 414.516 273.026L412.068 272.766C411.584 282.844 410.928 292.891 410.334 302.985C418.511 309.021 426.646 315.078 434.735 321.167L434.734 321.165Z" fill="black"/>
<path d="M591.188 327.898L591.448 329.633C583.662 336.242 576.032 343.054 568.266 349.68V349.685C569.937 357.289 571.182 364.977 572 372.721C586.412 379.585 599.677 388.642 611.307 399.581C613.525 392.602 616.088 385.862 618.979 379.143C629.244 376.586 639.509 373.862 649.724 371.248C652.974 361.539 656.479 351.909 659.62 342.165C670.203 339.811 680.677 336.977 691.24 334.529L690.547 332.16C678.542 332.16 666.563 332.498 654.578 333.279C650.114 341.175 645.411 348.962 641.192 356.987C632.567 357.774 623.963 358.649 615.411 359.883L598.608 376.686L598.614 376.676C597.947 368.03 595.556 359.597 591.577 351.889C597.176 345.394 602.515 338.675 607.875 331.952C605.13 323.551 602.442 315.149 599.552 306.806L596.843 299.02C601.51 292.561 606.27 286.213 610.807 279.681L609.26 277.817C601.792 284.587 594.271 291.295 586.692 297.942C588.239 307.853 589.75 317.859 591.187 327.901L591.188 327.898Z" fill="black"/>
<path d="M655.615 375.085L655.203 376.653C645.531 379.965 635.839 383.205 626.12 386.377C624.704 394.012 622.87 401.59 620.709 409.059C631.402 420.903 640.214 434.319 646.845 448.835C651.517 443.299 656.465 437.997 661.662 432.95C672.136 434.539 682.641 435.898 693.116 437.429C699.834 429.7 706.48 421.899 713.408 414.356C724.121 415.934 734.829 417.606 745.533 419.361L745.793 416.955C734.726 412.325 723.507 407.996 712.195 404.205C705.044 409.804 697.747 415.2 690.747 421.008C682.476 418.487 674.211 415.966 665.845 413.82L655.017 418.299L647.741 421.32C646.517 421.955 645.236 422.471 643.913 422.872C646.611 414.638 647.621 405.946 646.882 397.315C654.554 393.435 662.059 389.252 669.565 385.086C670.257 376.294 671.023 367.502 671.523 358.69L672.007 350.518C678.783 346.372 685.617 342.325 692.299 337.992L691.627 335.658C682.143 339.054 672.586 342.32 663.065 345.591C660.617 355.434 658.133 365.268 655.617 375.085L655.615 375.085Z" fill="black"/>
<path d="M513.627 308.978L514.502 310.489C510.002 319.655 505.413 328.801 500.799 337.91C505.185 344.311 509.2 350.978 512.987 357.717H512.992C528.961 358.519 544.705 361.811 559.658 367.462C559.065 360.222 558.836 352.956 558.971 345.696C567.388 339.295 575.774 332.967 584.34 326.639C583.632 316.41 582.997 306.108 582.382 295.967C591.153 289.581 599.855 283.144 608.647 276.816L607.1 274.952C596.012 279.504 585.111 284.488 574.303 289.697C573.183 298.713 571.949 307.728 570.98 316.744C563.365 320.848 555.745 324.9 548.297 329.285C545.271 336.567 542.157 343.807 539.224 351.145H539.219C535.344 343.375 529.896 336.489 523.225 330.932C525.896 322.755 528.266 314.505 530.693 306.255C524.928 299.572 519.271 292.796 513.391 286.208L507.729 280.047C509.594 272.317 511.464 264.609 513.328 256.828L511.146 255.672C506.854 264.781 502.427 273.833 498.078 282.906C503.266 291.563 508.448 300.256 513.625 308.98L513.627 308.978Z" fill="black"/>
<path d="M328.813 488.272C326.469 490.355 324.303 492.636 322.339 495.084C314.162 492.412 305.913 490.064 297.662 487.616C290.98 493.381 284.203 499.037 277.615 504.918L271.475 510.408C263.745 508.543 256.037 506.58 248.256 504.809L247.1 506.991C256.209 511.283 265.261 515.726 274.334 520.059C283.501 514.46 292.72 509.028 301.922 503.523C311.032 508.169 320.234 512.632 329.344 517.242C335.745 512.856 342.411 508.804 349.15 505.012H349.14C349.952 489.091 353.239 473.387 358.885 458.476C354.218 458.851 349.551 459.112 344.811 459.299L337.176 459.148C330.645 450.841 324.41 442.346 318.097 433.779C307.868 434.487 297.567 435.123 287.425 435.737C280.8 427.17 274.566 418.264 268.237 409.472L266.373 411.019C270.925 422.107 275.873 433.03 281.118 443.8C290.134 444.941 299.134 446.191 308.165 447.144C312.269 454.758 316.321 462.379 320.706 469.827C327.987 472.853 335.248 475.967 342.566 478.9H342.571C337.639 481.483 333.019 484.629 328.811 488.274L328.813 488.272Z" fill="black"/>
<path d="M354.068 651.712L354.48 650.071C364.151 646.758 373.844 643.524 383.562 640.363C384.979 632.712 386.812 625.128 388.974 617.665C378.271 605.848 369.458 592.452 362.843 577.941C358.103 583.447 353.213 588.691 347.911 593.733C337.421 592.353 326.968 590.822 316.495 589.291C309.755 597.02 302.943 604.671 296.167 612.364C285.453 610.786 274.746 609.104 264.042 607.322L263.781 609.77C274.87 614.364 286.068 618.614 297.38 622.52C304.547 616.921 311.792 611.453 318.864 605.718C327.114 608.275 335.364 610.759 343.728 612.905C351.025 609.9 358.269 606.801 365.588 603.869C363.328 612.379 361.593 620.671 362.619 629.462C354.947 633.342 347.463 637.525 339.936 641.691C339.244 650.483 338.478 659.275 337.978 668.087L337.53 676.322C330.697 680.389 323.921 684.514 317.238 688.848L317.931 691.181C327.452 687.801 336.972 684.52 346.494 681.249C349.04 671.4 351.566 661.555 354.066 651.713L354.068 651.712Z" fill="black"/>
<path d="M496.028 717.832L495.169 716.321C499.648 707.155 504.242 698.009 508.851 688.9C504.466 682.499 500.45 675.832 496.664 669.113L496.659 669.108C480.727 668.28 465.019 664.994 450.085 659.363C450.663 666.624 450.908 673.79 450.794 681.071C442.393 687.509 433.882 693.821 425.387 700.15C426.095 710.358 426.731 720.587 427.345 730.801C418.778 737.426 409.872 743.681 401.08 750.009L402.627 751.873C413.716 747.321 424.638 742.337 435.444 737.128C436.543 728.112 437.798 719.112 438.746 710.081C446.361 705.977 453.981 701.925 461.429 697.555L465.929 686.727L468.934 679.524H468.94C469.382 678.206 469.919 676.92 470.544 675.68C474.247 683.54 479.705 690.446 486.508 695.858C483.836 704.035 481.487 712.284 479.039 720.535C484.804 727.217 490.461 734.014 496.342 740.582L501.831 746.722C499.967 754.451 497.987 762.16 496.342 769.941L498.487 771.097C502.779 762.009 507.222 752.936 511.555 743.862C506.357 735.232 501.18 726.55 496.028 717.832L496.028 717.832Z" fill="black"/>
<path d="M738.081 491.925C729.326 494.316 720.513 496.592 711.816 499.186C705.097 493.732 698.431 488.227 691.545 483.003H667.915C673.326 476.117 678.071 469.06 680.441 460.492C689.008 459.857 697.519 458.867 706.071 457.898C710.103 450.06 714.155 442.201 717.998 434.248L721.566 426.779C729.441 425.602 737.301 424.409 745.124 423.045L745.384 420.597C735.306 420.112 725.259 419.456 715.181 418.862C708.858 427.576 702.473 436.19 696.031 444.717C685.838 443.931 675.645 443.3 665.473 442.535C661.255 449.056 656.692 455.352 651.807 461.389C657.145 476.425 660.13 492.196 660.656 508.144C667.083 504.837 673.676 501.852 680.405 499.207C689.587 504.472 698.681 509.92 707.79 515.337C716.957 510.744 726.102 506.134 735.378 501.807C744.712 507.406 753.914 513.004 763.118 518.739L764.274 516.593C755.853 508.056 747.119 499.858 738.081 491.926L738.081 491.925Z" fill="black"/>
<path d="M325.961 327.045L327.044 326.707L325.961 327.003V327.045Z" fill="black"/>
<path d="M762.068 756.752L735.261 730.022L706.573 701.46L671.74 666.72L633.98 629.069L596.646 591.736L562.501 557.73L534.84 530.121L516.809 512.148C512.72 508.08 508.429 502.273 501.877 504.569C494.804 506.997 493.945 515.601 498.814 520.476L519.35 541.012L546.044 567.632L579.642 601.231L616.976 638.449L654.721 676.1L689.909 711.193L719.513 740.704L740.097 761.193C742.993 764.089 745.847 767.053 748.795 769.876H748.8C750.482 771.834 752.904 773.006 755.488 773.11C758.071 773.22 760.581 772.251 762.42 770.438C764.264 768.626 765.269 766.131 765.201 763.548C765.133 760.964 764.003 758.522 762.071 756.808L762.068 756.752Z" fill="black"/>
<path d="M512.734 505.458L613.01 605.453L613.015 605.458C644.057 568.917 654.546 519.172 640.895 473.208C627.245 427.244 591.302 391.286 545.343 377.62C499.385 363.948 449.63 374.422 413.084 405.453C376.532 436.489 358.13 483.885 364.162 531.453C370.199 579.016 399.85 620.317 442.99 641.245C486.13 662.166 536.922 659.885 578.017 635.177C584.777 631.078 591.194 626.443 597.205 621.308L587.069 611.209L562.689 586.944L533.476 557.73L508.424 532.736C504.69 529.001 500.731 525.267 496.981 521.329C496.169 520.512 495.476 519.579 494.929 518.564C495.19 520.085 495.658 521.564 496.33 522.954C488.638 519.22 489.033 508.246 494.466 502.85C499.898 497.455 510.95 497.252 514.548 504.981V504.976C513.147 504.267 511.653 503.767 510.106 503.481C511.08 504.002 511.97 504.668 512.736 505.46L512.734 505.458Z" fill="black"/>
<path d="M657.84 603.992C660.804 602.955 663.684 601.674 666.444 600.169C672.996 605.768 679.658 611.106 686.397 616.466C694.778 613.721 703.2 611.034 711.523 608.143L719.309 605.435C725.768 610.101 732.117 614.862 738.648 619.399L740.512 617.852C733.736 610.383 727.054 602.805 720.387 595.284C709.783 596.909 699.163 598.404 688.543 600.024C681.934 592.237 675.142 584.607 668.496 576.841C660.897 578.445 653.226 579.622 645.502 580.575V580.565C639.512 593.101 631.866 604.773 622.762 615.267L631.069 623.554C633.142 625.627 636.387 626.408 639.038 627.549C639.465 629.319 639.934 631.096 640.402 632.851L671.558 663.929L674.637 667.008C675.048 667.419 675.459 668.018 676.017 668.185V668.445L685.553 677.945C685.423 672.997 685.163 668.07 684.845 663.142C676.949 658.642 669.126 654.033 661.137 649.721C660.35 641.122 659.387 632.544 658.241 623.981L641.533 607.178L641.543 607.184C647.075 606.71 652.538 605.637 657.841 603.991L657.84 603.992Z" fill="black"/>
<path d="M569.334 655.325C574.933 660.049 580.084 664.955 585.126 670.257C583.746 680.747 582.215 691.221 580.683 701.673C588.413 708.413 596.214 715.074 603.757 722.001C602.179 732.715 600.507 743.422 598.751 754.126L601.158 754.387C605.751 743.319 610.116 732.1 613.908 720.788C608.309 713.621 602.913 706.304 597.105 699.304C599.662 691.054 602.147 682.804 604.293 674.44C601.287 667.159 598.188 659.899 595.256 652.58C603.751 654.84 612.059 656.596 620.849 655.549C624.73 663.221 628.912 670.726 633.079 678.232C640.657 678.831 648.235 679.554 655.813 679.987L606.985 631.08C595.683 640.955 583.001 649.121 569.335 655.325L569.334 655.325Z" fill="black"/>
</svg>
