<svg width="934" height="934" viewBox="0 0 934 934" fill="none" xmlns="http://www.w3.org/2000/svg">
<path d="M406.455 300.057C395.647 308.156 389.428 325.161 387.449 331.437C410.856 331.192 436.168 330.375 438.761 329.27H439.048C439.944 327.937 440.959 326.687 442.089 325.536C428.48 319.77 416.313 311.072 406.453 300.057L406.455 300.057Z" fill="black"/>
<path d="M221.28 491.297C224.739 491.573 228.015 492.969 230.614 495.276C248.666 481.875 244.78 457.12 260.072 442.708L256.077 442.37C244.562 447.411 231.083 448.625 220.405 455.323L220.4 455.328C212.296 460.739 205.359 467.724 199.999 475.859L200.129 476.062C193.15 483.213 184.728 493.906 185.645 504.624C197.869 495.255 211.276 490.14 221.281 491.296L221.28 491.297Z" fill="black"/>
<path d="M242.906 510.457C253.771 492.145 294.594 477.082 300.401 474.988H300.396C302.214 471.54 304.49 468.352 307.172 465.524C313.479 458.727 313.297 448.909 314.641 440.305C300.157 446.279 280.891 444.04 265.662 443.05C256.776 448.649 254.646 459.457 251.735 468.66C248.209 479.857 242.813 490.649 233.314 497.91L234.007 498.582C223.423 501.478 214.22 507.488 212.668 519.322C216.173 514.905 220.965 511.681 226.381 510.093C231.793 508.51 237.564 508.634 242.908 510.457L242.906 510.457Z" fill="black"/>
<path d="M315.094 347.364C304.266 360.223 295.25 377.228 292.1 383.462C307.032 384.488 328.182 384.582 333.168 380.942L333.162 380.947C336.855 371.9 342.996 364.056 350.897 358.301C343.918 358.551 336.933 358.223 330.012 357.312C335.59 351.499 340.241 344.859 343.788 337.619C338.574 336.296 333.09 336.514 327.996 338.244C322.902 339.973 318.423 343.139 315.095 347.363L315.094 347.364Z" fill="black"/>
<path d="M257.228 538.844C260.738 536.698 275.894 527.552 284.498 524.245C286.832 512.745 291.295 494.078 297.9 479.933C286.384 484.319 255.488 497.386 246.4 511.87L247.014 512.131C236.764 522.157 224.317 536.735 223.566 551.798C236.395 541.459 249.197 536.584 257.228 538.844L257.228 538.844Z" fill="black"/>
<path d="M391.801 311.937C382.561 312.63 373.274 311.442 364.509 308.448C350.473 320.786 349.093 339.974 337.607 354.349C344.269 354.76 350.957 354.661 357.602 354.047H357.732C372.519 352.646 390.602 348.073 400.664 335.025C394.581 335.119 388.492 335.176 382.388 335.229V335.234C384.43 327.067 387.597 319.228 391.8 311.936L391.801 311.937Z" fill="black"/>
<path d="M268.214 375.724L231.818 417.688L273.334 416.865C279.907 406.391 286.402 394.614 290.361 387.001L286.345 386.683C288.585 381.886 291.048 377.183 293.642 372.552C285.465 375.302 276.82 376.381 268.216 375.724L268.214 375.724Z" fill="black"/>
<path d="M356.267 561.497C379.825 549.716 396.585 530.492 394.122 503.278C369.315 517.877 332.877 521.142 324.439 553.68C324.439 554.388 324.643 555.096 324.736 555.826L324.231 555.992H324.236C323.221 559.419 321.596 562.638 319.439 565.492C313.58 575.888 314.679 594.238 315.596 602.826C327.148 587.727 338.908 570.195 356.268 561.498L356.267 561.497Z" fill="black"/>
<path d="M390.547 559.137C390.161 551.512 390.453 543.877 391.427 536.304C380.49 552.449 364.172 558.965 349.391 570.334C339.427 578.381 330.818 587.97 323.87 598.725C320.713 616.272 321.146 651.198 340.672 660.324C338.62 638.334 343.25 617.537 359.454 602.345C371.829 590.829 385.642 575.616 390.547 559.137H390.547Z" fill="black"/>
<path d="M392.88 644.244C405.255 628.17 420.541 613.369 427.858 594.066H427.864C434.202 576.52 434.947 557.436 429.989 539.452C420.41 551.191 414.775 558.306 414.046 573.758C413.671 581.748 413.541 587.946 418.9 594.065C412.197 592.2 406.541 589.679 401.484 584.529C384.088 581.075 364.151 620.165 361.052 633.269C357.318 649.023 357.188 703.659 385.317 700.581C376.343 680.326 379.312 661.826 392.88 644.242L392.88 644.244Z" fill="black"/>
<path d="M288.694 550.897C292.454 543.725 296.996 536.99 302.246 530.829C295.6 533.319 288.891 535.61 282.12 537.699C282.568 534.673 283.073 531.668 283.631 528.662C260.333 538.928 229.271 560.078 240.699 590.261H240.704C246.449 581.709 254.871 575.308 264.652 572.064V571.725C264.725 571.746 278.428 569.298 288.693 550.897L288.694 550.897Z" fill="black"/>
<path d="M316.24 563.604C318.292 560.973 319.802 557.958 320.683 554.739C320.636 554.39 320.636 554.041 320.683 553.692C320.162 549.323 318.818 532.938 324.302 521.864C321 523.359 317.599 524.797 314.224 526.177C295.76 534.708 292.626 559.515 275.938 570.603C279.99 570.859 283.927 572.057 287.432 574.093C296.807 574.822 311.031 572.864 316.239 563.603L316.24 563.604Z" fill="black"/>
<path d="M291.201 578.044C290.232 578.044 289.206 578.044 288.175 577.913C280.706 595.72 280.258 617.449 284.685 636.044C286.816 644.95 293.904 667.924 307.592 662.68C302.233 644.128 301.602 623.967 312.41 607.259C311.832 603.524 309.477 585.565 313.061 571.66V571.665C306.66 576.103 298.987 578.342 291.201 578.046L291.201 578.044Z" fill="black"/>
<path d="M426.054 663.377L425.866 662.294C423.606 659.419 410.205 641.856 410.319 628.695C398.429 643.294 380.637 660.783 383.626 681.523C401.058 683.987 415.21 695.32 419.225 709.898L419.22 709.893C426.23 704.617 430.923 696.83 432.319 688.169C433.709 679.502 431.694 670.638 426.688 663.429L426.054 663.377Z" fill="black"/>
<path d="M361.6 605.657L363.318 617.344C369.574 606.594 384.788 582.866 398.318 580.886H398.313C395.178 576.599 392.943 571.724 391.745 566.552C383.792 583.818 365.5 601.922 361.6 605.656L361.6 605.657Z" fill="black"/>
<path d="M265.494 438.924L265.645 439.351C286.176 440.585 310.577 440.189 315.374 435.747C317.234 425.825 321.531 416.517 327.88 408.664C321.01 409.091 314.177 409.075 307.349 409.002C318.063 403.643 326.016 397.185 331.224 385.8C319.614 389.102 306.38 388.039 294.469 387.347C290.735 394.644 274.386 425.467 262.734 437.748L263.146 438.045C262.786 438.456 262.396 438.831 261.969 439.165L264.714 439.352C265.068 439.071 265.422 438.962 265.495 438.925L265.494 438.924Z" fill="black"/>
<path d="M405.4 334.99C402.718 338.985 399.374 342.495 395.509 345.371L395.77 345.631C395.676 345.725 385.988 356.235 385.613 387.35C392.353 387.219 415.744 386.063 427.837 376.615C428.264 365.823 429.968 346.413 436.608 333.422C431.91 334.036 422.873 334.578 405.4 334.99L405.4 334.99Z" fill="black"/>
<path d="M424.253 540.55C438.368 523.414 451.227 504.357 446.56 480.982C431.628 491.493 418.56 494.384 410.404 512.456C406.831 507.831 404.284 502.497 402.935 496.816C401.279 498.399 399.493 499.837 397.597 501.128C398.55 509.342 397.3 517.238 396.31 525.394C392.93 545.628 389.441 575.404 410.722 587.254C407.363 568.327 412.53 554.68 424.253 540.551L424.253 540.55Z" fill="black"/>
<path d="M483.879 334.15C470.905 333.973 458.057 331.567 445.895 327.036C432.828 337.864 431.578 372.135 431.469 381.801C464.698 370.603 477.761 360.651 480.318 358.525C480.282 350.27 481.48 342.052 483.881 334.151L483.879 334.15Z" fill="black"/>
<path d="M360.133 450.564C375.887 449.798 394.742 447.876 407.081 436.99C421.326 424.464 428.045 404.193 430.695 386.012L427.784 386.98V381.215C413.409 390.548 389.612 391.017 384.664 391.033H384.659C382.685 393.319 380.362 395.277 377.773 396.84C369.112 413.919 373.669 435.684 360.133 450.564L360.133 450.564Z" fill="black"/>
<path d="M453.6 468.03C462.767 452.39 461.777 434 461.199 428.306C449.475 436.275 432.116 443.238 417.876 448.317C417.746 453.525 416.569 478.557 406.47 492.686C405.871 496.176 408.058 501.311 409.944 504.78C420.001 486.321 443.485 485.373 453.6 468.031V468.03Z" fill="black"/>
<path d="M468.054 417.444C480.544 401.84 480.242 371.97 479.887 363.553C474.174 367.584 460.751 375.631 434.679 384.668C431.429 409.381 421.278 430.589 407.387 441.621V441.616C405.95 444.709 403.903 447.48 401.377 449.772C418.961 444.361 456.872 431.423 468.054 417.444L468.054 417.444Z" fill="black"/>
<path d="M323.921 544.804C337.285 517.642 366.259 514.752 390.41 501.049C409.207 490.393 413.202 469.841 414.118 449.622C404.785 452.742 395.451 455.445 386.118 457.987C390.41 453.971 395.451 450.518 399.503 446.393C388.175 451.638 373.367 453.466 363.81 454.122C360.075 479.21 355.69 506.128 331.31 518.538C324.966 524.366 323.825 536.33 323.919 544.804H323.921Z" fill="black"/>
<path d="M354.666 450.35C369.973 440.476 366.614 414.605 372.364 399.632C360.77 404.897 345.202 407.231 333.166 408.257C333.052 408.351 322.807 417.439 318.828 436.705L319.031 436.835C318.926 437.007 318.807 437.168 318.676 437.319C316.994 445.851 317.463 454.549 313.525 462.517C322.26 459.085 338.947 452.814 354.665 450.35L354.666 450.35Z" fill="black"/>
<path d="M389.001 349.417C379.47 354.157 369.111 357.006 358.501 357.818C338.881 369.016 337.575 391.662 321.168 405.23C335.507 404.709 370.804 402.058 381.813 388.427C381.98 368.177 385.829 356.011 389.001 349.417L389.001 349.417Z" fill="black"/>
<path d="M309.601 468.417C296.533 481.745 288.804 521.037 286.789 532.256C304.3 526.433 328.21 520.532 341.872 507.521C354.731 495.255 357.418 471.062 359.976 454.324C342.492 455.089 325.522 461.287 309.601 468.417V468.417Z" fill="black"/>
<path d="M235.521 403.217C207.86 406.425 203.324 445.853 193.406 465.357L197.87 472.487C206.901 459.175 220.406 449.545 235.933 445.347C253.293 440.29 260.834 436.165 270.969 420.634L223.557 421.587L239.442 403.259V403.254C238.14 403.139 236.827 403.129 235.52 403.217L235.521 403.217Z" fill="black"/>
<path d="M683.375 443.257C687.041 442.366 689.921 439.523 690.854 435.861C691.786 432.205 690.625 428.33 687.833 425.788C685.974 431.632 680.567 435.616 674.432 435.663C677.64 437.913 680.629 440.46 683.374 443.257L683.375 443.257Z" fill="black"/>
<path d="M500.734 353.19C507.229 348.169 508.948 342.347 508.703 334.169C501.625 335.07 494.5 335.565 487.37 335.643C484.365 346.841 480.573 362.69 488.604 372.976C489.458 361.929 495.656 357.132 500.734 353.19L500.734 353.19Z" fill="black"/>
<path d="M201.226 434.537C205.596 423.563 211.643 412.51 221.294 405.324C194.581 410.923 165.576 421.152 140.002 404.839H139.997C137.633 411.662 139.055 419.225 143.732 424.719C146.492 426.641 177.33 447.474 201.226 434.537L201.226 434.537Z" fill="black"/>
<path d="M205.467 405.044H207.201C217.357 402.059 231.805 397.111 242.332 399.929L263.613 375.402V375.397C251.78 374.178 240.113 371.673 228.821 367.934C211.144 380.439 178.57 380.533 160.988 367.934C149.785 393.204 187.733 405.043 205.466 405.043L205.467 405.044Z" fill="black"/>
<path d="M344.174 295.417C358.752 303.797 377.382 310.818 394.367 307.813C396.981 303.777 400.242 300.198 404.018 297.23C400.95 293.579 398.143 289.714 395.617 285.672C378.294 295.547 350.909 295.511 334.877 282.797C335.252 287.428 338.518 291.87 344.174 295.417H344.174Z" fill="black"/>
<path d="M229.08 364.164C248.94 370.809 277.429 377.904 296.861 367.059C307.314 349.533 321.741 327.731 345.392 334.19C349.444 323.794 352.111 315.039 360.512 307.065V307.06C354.746 304.981 349.158 302.445 343.804 299.466C329.825 318.32 296.22 318.695 277.517 307.83C275.017 322.762 293.663 330.232 304.976 332.565C280.227 353.45 233.091 359.633 206.361 338.164C202.481 351.58 219.038 360.539 229.08 364.164V364.164Z" fill="black"/>
<path d="M685.801 371.257C681.738 370.559 677.561 371.314 673.999 373.382C674.134 374.143 674.035 374.924 673.723 375.622C679.832 377.721 683.853 383.559 683.634 390.018C687.27 389.518 690.4 387.21 691.967 383.893C693.53 380.575 693.306 376.69 691.379 373.57C689.728 372.367 687.816 371.575 685.801 371.257V371.257Z" fill="black"/>
<path d="M666.826 375.23C666.696 371.496 665.967 366.324 663.092 363.881L658.311 362.595C653.529 363.21 649.555 367.913 646.139 369.595H646.144C644.675 373.35 644.993 377.574 647.014 381.069C649.035 384.564 652.535 386.949 656.524 387.553C657.66 381.97 661.535 377.34 666.826 375.23L666.826 375.23Z" fill="black"/>
<path d="M188.387 466.777C189.377 465.069 190.252 463.298 191.017 461.475V461.605C194.304 454.49 196.616 446.933 199.231 439.578C180.304 447.344 157.752 439.073 141.851 428.005C134.591 428.625 127.518 430.63 121.018 433.922C143.643 430.693 195.482 447.531 173.283 479.354V479.359C179.424 476.708 184.668 472.338 188.387 466.776L188.387 466.777Z" fill="black"/>
<path d="M719.6 382.977C716.408 382.414 713.475 381.821 711.408 381.373C709.928 382.498 708.35 383.472 706.684 384.284C706.913 388.394 705.501 392.42 702.762 395.487C706.731 397.446 711.46 397.019 715.007 394.383C718.559 391.748 720.335 387.342 719.6 382.977V382.977Z" fill="black"/>
<path d="M639.48 365.604C637.334 360.432 632.724 360.005 628.152 360.692C611.521 368.682 621.672 388.989 637.599 389.364H637.594C634.646 381.947 635.579 373.557 640.073 366.963C639.849 366.525 639.652 366.067 639.48 365.603V365.604Z" fill="black"/>
<path d="M736.546 383.79C733.348 384.478 730.052 384.556 726.822 384.014C727.796 388.061 727.427 392.311 725.765 396.129C724.109 399.946 721.244 403.118 717.619 405.16C730.426 410.405 743.489 396.181 736.849 383.879L736.546 383.79Z" fill="black"/>
<path d="M657.441 314.084C662.613 309.396 667.785 303.985 669.201 301.464C661.415 304.058 649.696 300.099 642.3 297.412L630.936 297.657C638.774 304.506 650.665 306.542 657.441 314.083L657.441 314.084Z" fill="black"/>
<path d="M637.828 412.27C641.26 409.27 641.713 404.099 638.854 400.546C637.63 404.041 634.885 406.791 631.385 408.015C633.432 409.578 635.583 411.005 637.827 412.27H637.828Z" fill="black"/>
<path d="M670.226 432.43L671.195 433.139V433.144C674.336 431.3 676.445 428.107 676.914 424.498C677.378 420.889 676.148 417.264 673.586 414.68C672.57 420.618 668.2 425.43 662.383 427.003C665.279 428.868 667.888 430.738 670.279 432.435L670.226 432.43Z" fill="black"/>
<path d="M653.6 404.657C653.391 409.818 650.423 414.464 645.834 416.829C648.391 418.36 651.303 420.079 654.365 421.964C657.037 419.824 658.521 416.537 658.37 413.115C658.219 409.699 656.449 406.558 653.6 404.657V404.657Z" fill="black"/>
<path d="M778.693 347.417C774.438 340.079 770.386 332.63 766.131 325.297C763.313 320.464 758.402 309.281 752.615 307.229H751.068V306.297C736.865 296.104 717.75 293.229 700.666 295.099C690.588 276.318 656.802 267.974 656.802 267.974V267.968C645.802 257.463 631.204 251.562 615.996 251.468C591.876 227.203 547.954 229.067 516.745 232.375V232.187C512.131 232.312 507.24 232.531 502.073 232.839C494.511 235.958 486.218 236.88 478.156 235.495C470.098 234.104 462.588 230.469 456.505 225C456.213 232.641 458.729 240.125 463.583 246.036C455.182 250.947 444.433 250.218 437.802 242.604C434.817 261.978 457.589 261.645 470.021 261.082C474.276 260.879 493.485 260.952 494.677 253.822C492.005 253.822 465.65 256.322 468.671 248.874C470.687 243.89 490.827 241.911 495.573 241.405C506.567 240.358 521.354 241.947 531.245 247.249H531.25C530.521 245.285 529.578 243.405 528.427 241.65C534.64 244.265 537.219 250.796 537.76 251.562C532.755 250.025 527.588 249.077 522.364 248.744L520.5 247.551C505.417 243.181 490.912 244.864 476.166 249.416C482.682 249.864 506.464 247.791 495.245 258.749C487.906 265.952 470.157 264.796 461.234 264.65C432.917 264.166 403.37 249.921 386.27 227.317C381.885 261.218 399.338 294.702 427.093 313.801L427.088 313.796C443.842 325.056 463.478 331.274 483.666 331.717C488.354 331.884 535.448 325.967 534.609 323.858C535.448 325.988 514.078 330.837 512.374 331.196C513.119 339.894 511.703 347.753 505.411 354.008C496.843 362.518 491.708 366.461 492.494 379.805V379.8C488.77 378.316 485.697 375.55 483.833 371.998C483.479 390.815 480.452 413.326 464.567 425.629H464.791C467.666 443.378 463.468 467.107 448.979 478.941L450.005 478.66C455.604 499.342 445.412 519.857 432.907 535.629C443.396 566.858 433.599 599.098 413.865 624.035L414.798 624.39C411.792 632.322 419.277 646.004 425.141 654.592C423.985 626.89 438.094 598.852 452.095 575.874L452.1 575.879C471.527 544.144 496.136 515.89 524.903 492.286C546.184 474.832 571.569 457.4 599.309 452.504C610.507 450.546 622.997 450.843 632.293 458.218C646.293 469.286 645.695 489.802 642.392 505.592C676.215 515.504 704.199 474.68 681.856 446.868H681.632C670.304 434.176 652.064 425.608 637.878 416.442H637.747C618.351 406.249 598.211 383.718 618.351 362.868C617.914 362.941 617.476 362.941 617.044 362.868L607.841 376.89C608.362 367.088 614.747 359.827 619.32 355.832C614.669 358.072 610.185 360.655 605.919 363.562C604.075 375.452 605.362 387.619 609.648 398.859C602.778 390.906 598.242 378.776 599.752 368.244C591.783 374.947 579.763 387.938 582.95 399.624C570.444 383.364 597.643 359.307 609.491 352.379C627.355 341.947 652.423 335.352 672.491 343.27H672.501C663.387 342.983 654.277 343.973 645.433 346.202C656.09 347.249 666.636 351.113 676.684 354.619C687.882 358.556 704.069 361.843 712.824 370.02H712.819C715.532 370.905 717.949 372.52 719.803 374.687C725.001 375.171 730.064 376.624 734.735 378.963C757.771 386.093 767.756 363.395 779.235 347.676L778.693 347.417ZM499.587 319.677C487.493 325.969 474.441 318.948 474.441 318.948C477.894 318.781 481.702 317.677 479.462 314.766C478.004 312.901 463.931 312.901 461.431 312.172C450.937 309.213 441.353 303.646 433.582 295.989C442.316 298.119 438.53 292.927 434.926 290.239C425.311 283.073 415.811 277.171 407.243 268.437C407.243 268.437 429.232 279.301 436.738 278.593C431.899 279.249 426.983 279.004 422.232 277.864C422.232 277.864 443.03 296.53 480.492 295.504C480.492 295.504 455.107 302.972 451.242 300.821C464.309 308.998 480.419 312.019 495.596 311.332C507.096 310.863 519.32 308.623 530.763 310.733C530.758 310.717 511.664 313.384 499.586 319.675L499.587 319.677ZM612.633 412.281C629.581 424.052 645.597 437.114 660.529 451.354C637.045 436.948 615.223 419.994 595.461 400.802C601.357 404.406 607.034 408.287 612.633 412.282V412.281ZM528.019 240.921C526.69 239.249 524.888 238.025 522.847 237.411C522.847 237.411 549.316 246.426 556.784 246.426C563.039 239.801 569.852 242.114 577.315 244.562C579.31 245.197 596.971 250.723 589.69 243.254C591.054 243.833 599.992 247.921 598.481 251.223C597.158 254.119 587.523 250.083 585.789 249.541C577.481 246.947 570.018 243.51 562.997 250.905C555.679 250.984 530.127 241.65 528.018 240.921L528.019 240.921ZM526.638 353.26H526.633C524.857 353.275 523.097 352.848 521.519 352.025C531.243 349.765 532.94 336.067 524.112 331.495C539.462 327.911 542.634 353.26 526.633 353.26L526.638 353.26ZM536.904 255.598L540.638 254.984L540.3 249.385C548.008 251.791 556.445 254.838 564.565 254.614C571.138 246.848 577.95 251.124 586.164 253.588C589.58 254.635 596.205 257.489 599.694 255.098C604.007 252.151 601.653 246.864 598.387 244.083V244.078C604.325 246.765 609.694 250.567 614.199 255.275C629.366 254.9 644.027 260.723 654.798 271.406C669.563 275.026 688.396 282.156 696.61 295.671C690.058 296.718 683.787 298.432 677.156 299.088C676.016 277.713 641.167 275.567 625.844 274.432C607.36 272.943 588.771 275.39 571.303 281.614C558.704 275.25 548.063 264.218 536.902 255.593L536.904 255.598ZM731.037 359.385C720.694 354.177 717.782 344.245 710.507 336.24C702.574 327.505 690.944 326.906 679.856 328.193C696.34 322.5 709.351 327.297 718.627 341.5C727.085 354.417 736.955 361.323 752.637 363.469H752.632C745.189 364.152 737.711 362.74 731.033 359.381L731.037 359.385ZM754.256 339.88C750.522 315.406 714.792 313.036 696.297 318.077C712.797 308.478 757.745 311.91 754.256 339.874V339.88ZM720.657 303.702C692.808 305.567 673.131 332.692 644.532 329.166C643.693 330.661 624.24 330.343 620.6 331.463V331.458C613.954 333.515 607.694 336.672 602.084 340.791C591.631 348.463 582.557 358.619 573.672 368.026C577.052 363.245 578.224 353.599 578.224 353.599L571.693 358.584C564.88 335.625 578.896 302.677 604.996 301.614L599.397 297.599C606.641 292.838 613.866 290.635 622.355 294.109L639.158 293.812C623.627 288.213 608.059 286.344 591.798 290.078V290.073C604.006 286.625 616.886 286.276 629.262 289.062C640.986 291.786 651.866 296.979 664.111 296.979C664.674 294.219 664.653 289.047 659.054 284.265C670.684 288.802 673.299 295.036 673.481 299.348H673.486C672.731 301.275 671.845 303.145 670.835 304.947C667.418 310.546 661.632 315.27 656.704 319.583C652.412 311.573 641.433 309.765 634.303 304.932C611.267 300.469 623.459 318.744 635.219 325.072C658.646 331.249 674.026 317.025 693.667 307.562C714.198 297.687 735.703 299.405 755.266 310.827C744.344 306.124 732.469 302.989 720.693 303.697L720.657 303.702Z" fill="black"/>
</svg>
