<svg width="934" height="934" viewBox="0 0 934 934" fill="none" xmlns="http://www.w3.org/2000/svg">
<path d="M566.586 314.562C529.685 314.494 493.461 324.463 461.794 343.4C477.081 352.754 487.945 367.874 491.939 385.343H491.413C491.976 397.244 488.101 408.927 480.538 418.135C472.97 427.338 462.262 433.406 450.481 435.166C451.601 432.041 453.929 429.499 456.939 428.108C453.632 426.275 449.674 426.015 446.153 427.4C442.637 428.791 439.924 431.676 438.757 435.275C431.752 434.556 425.008 432.249 419.028 428.541C421.595 426.015 425.137 424.728 428.731 425.009C426.861 421.952 423.783 419.832 420.262 419.176C416.736 418.515 413.1 419.379 410.252 421.556C406.184 417.504 401.59 411.978 399.741 406.436C405.46 404.733 411.59 407.285 414.413 412.54C419.752 402.348 408.403 390.29 397.929 395.535H397.934C397.518 392.15 398.08 388.717 399.559 385.644C401.559 382.379 402.012 378.389 400.789 374.759L401.497 373.342L404.726 382.676C407.919 376.123 413.221 368.545 408.013 361.525L410.028 358.181L417.981 370.275C419.44 363.218 422.705 354.671 416.117 349.16C416.455 348.676 416.789 348.171 417.127 347.702L423.513 358.9C425.377 352.441 428.851 344.826 423.94 338.869L424.893 337.713L430.007 348.317C432.08 342.4 435.867 335.51 432.377 329.448C432.731 329.093 433.085 328.776 433.424 328.422L437.492 338.52C439.789 333.125 443.783 326.833 441.507 320.88L442.721 319.891L445.913 329.578C448.377 324.688 452.538 318.974 451.309 313.266C451.778 312.891 452.262 312.558 452.768 312.219L455.195 321.553C457.789 317.131 462.08 311.902 461.71 306.621L463.575 305.574L465.294 314.647C468.075 310.543 472.539 305.782 472.763 300.611L475.674 299.137L477.539 308.132C480.117 304.173 484.257 299.564 484.705 294.71L488.007 293.085L490.096 301.596C492.45 297.715 496.236 293.215 496.757 288.528C498.622 287.559 500.283 286.533 501.987 285.486L504.971 292.955C506.69 288.96 509.565 284.367 509.789 279.887L509.783 279.898C511.278 278.679 512.705 277.377 514.059 275.997L518.82 283.799C520.054 278.742 522.684 272.377 520.684 267.263C521.32 266.143 521.919 264.987 522.455 263.773L532.106 271.242C531.304 264.971 531.658 257.039 525.705 253.154L525.82 252.425L538.158 251.232C534.742 248.414 531.044 244.29 526.752 242.852V238.482L535.21 237.383L535.205 237.378C532.299 234.899 529.252 232.586 526.08 230.451C525.82 228.524 525.502 226.602 525.127 224.685L530.632 223.81C532.908 230.159 534.2 224.352 534.236 220.467C534.403 215.592 533.257 210.764 530.913 206.483C528.518 202.701 525.429 199.41 521.804 196.78C520.887 196.035 512.08 188.342 512.809 187.634C513.835 186.587 522.684 192.727 524.007 193.399C528.518 195.894 533.367 197.727 538.398 198.847C542.143 199.613 546.002 199.613 549.747 198.847C551.242 198.509 557.085 197.207 555.252 195.264C554.653 194.628 550.658 194.722 549.762 194.535L549.768 194.54C547.549 194.05 545.372 193.399 543.252 192.576C538.663 190.868 534.283 188.654 530.184 185.972C526.221 183.175 522.101 180.608 517.846 178.279C516.971 177.832 507.768 174.134 507.898 173.54C508.252 171.675 522.534 178.17 524.028 178.785C530.304 181.55 537.154 182.774 544.002 182.347C550.59 181.826 558.059 179.753 562.819 174.878C563.903 173.779 566.757 170.847 566.684 169.128C566.553 166.29 564.819 168.045 563.137 168.925H563.132C553.277 174.009 541.793 174.899 531.268 171.41C524.101 169.149 517.398 165.811 510.08 163.941C507.59 163.305 505.1 162.748 502.611 162.259C500.429 161.832 498.095 162.259 499.382 159.983C500.668 157.707 505.819 156.009 508.137 154.962C512.017 153.191 516.012 151.582 519.71 149.457C521.574 148.431 526.001 146.061 525.663 143.389C525.194 139.879 521.22 144.024 519.689 144.899C503.995 154.347 485.553 157.764 468.527 163.421C461.845 165.66 457.33 171.207 451.355 174.619C447.746 176.744 443.876 178.374 439.84 179.473C436.72 180.311 432.767 180.108 429.855 181.337C423.23 184.249 428.939 192.535 431.908 195.859C432.876 196.978 437.189 201.739 438.402 200.359C439.053 199.614 436.704 192.796 438.59 192.556C439.559 192.426 446.84 200.603 448.35 197.671C448.689 196.978 443.928 191.697 446.204 190.874C447.158 190.535 454.007 197.687 455.277 195.187C455.538 194.681 453.225 191.567 453.413 190.426C453.673 188.02 454.121 188.562 456.121 188.671C457.746 188.801 469.189 191.379 468.907 193.077C468.777 193.713 463.72 194.718 462.918 194.942L462.913 194.947C460.282 195.91 457.736 197.082 455.293 198.457C453.569 199.65 451.6 200.426 449.527 200.733C448.428 200.733 444.564 199.072 444.116 199.39C441.746 200.978 449.715 203.291 444.527 204.114C442.23 204.489 435.605 199.858 434.652 200.494C433.699 201.129 436.256 206.395 436.704 207.082C438.418 209.848 441.293 211.692 444.522 212.103C451.111 212.796 453.986 206.296 459.121 203.515C468.975 198.176 481.09 201.535 491.506 203.327C492.814 205.624 494.006 207.973 495.11 210.384C492.886 210.832 490.704 211.457 488.579 212.254V212.645C490.668 213.374 494.569 215.202 496.699 214.155C496.959 214.827 497.22 215.478 497.465 216.134C495.428 216.749 493.376 217.197 491.381 217.89V218.301C493.152 218.916 496.98 220.707 498.85 220.166C499.053 220.838 499.241 221.489 499.449 222.145C497.694 222.666 495.923 223.02 494.204 223.64L494.194 224.16C496.23 224.89 498.34 225.41 500.428 226.025C500.631 226.884 500.855 227.744 501.027 228.582V228.588C499.459 228.942 497.918 229.384 496.397 229.91V230.322C498.116 230.921 499.85 231.291 501.584 231.796C501.751 232.806 501.881 233.812 501.996 234.822H502.001C500.423 235.181 498.876 235.629 497.35 236.166V236.556C498.964 237.15 500.615 237.624 502.298 237.978C502.298 238.947 502.412 239.843 502.412 240.853C500.548 241.395 498.845 241.749 497.095 242.363V242.775C498.813 243.374 500.569 243.744 502.303 244.249C502.303 245.035 502.173 245.796 502.079 246.546H502.074C499.902 247.025 497.761 247.65 495.673 248.41V248.801C497.537 249.473 499.516 249.811 501.402 250.442V250.447C501.303 251.082 501.141 251.707 500.917 252.311C499.053 251.525 494.964 253.337 493.152 253.973V254.384C495.131 255.077 497.183 255.504 499.183 256.119H499.178C498.839 256.686 498.464 257.228 498.058 257.744C495.839 256.4 491.766 258.306 489.6 259.067V259.457C491.355 260.093 493.167 260.426 494.938 260.989C494.49 261.379 494.022 261.754 493.537 262.145C491.318 260.78 487.23 262.686 485.063 263.452V263.843L485.068 263.848C486.438 264.338 487.834 264.739 489.251 265.062L488.204 265.713C485.964 264.254 481.839 266.197 479.636 266.963V267.374C480.85 267.801 482.063 268.14 483.37 268.457L482.735 268.775C480.516 267.411 476.428 269.317 474.261 270.082V270.494C475.324 270.869 476.391 271.166 477.433 271.447L476.928 271.707C474.797 270.645 470.787 272.494 468.771 273.202V273.593C469.631 273.91 470.506 274.171 471.365 274.416L470.954 274.603C469.089 273.895 465.037 275.702 463.303 276.322V276.713C463.974 276.957 464.667 277.161 465.339 277.364L464.912 277.567C462.933 277.322 459.667 278.78 457.839 279.431V279.843L459.464 280.364L459.459 280.369C457.141 281.259 454.761 281.988 452.344 282.551V282.962L453.803 283.431C451.558 284.358 449.24 285.108 446.876 285.671V286.082L448.37 286.551V286.546C446.126 287.515 443.792 288.265 441.407 288.785V289.176C441.985 289.4 442.584 289.567 443.271 289.754L442.86 290.015V290.02C440.501 290.306 438.193 290.936 436.011 291.884V292.275C436.797 292.556 437.579 292.796 438.365 293.02L438.084 293.244C436.219 292.593 432.204 294.4 430.615 294.978V295.39C431.698 295.765 432.782 296.082 433.865 296.358L433.417 296.697C431.25 295.504 427.219 297.369 425.131 298.098V298.509C426.605 299.015 428.063 299.426 429.516 299.78L428.771 300.379C426.417 298.291 422.162 300.379 419.662 301.218V301.629C421.527 302.28 423.397 302.619 425.261 303.233L423.975 304.374C421.584 301.145 417.178 303.291 414.12 304.374V304.765C415.985 305.4 419.719 307.192 421.589 306.629L419.501 308.494C417.147 306.327 412.876 308.494 410.355 309.296V309.686C412.35 310.395 414.443 310.863 416.48 311.551L414.891 313.098C412.897 312.238 408.881 314.067 407.016 314.723V315.113L407.006 315.124C408.553 315.676 410.136 316.129 411.746 316.488C411.204 317.067 410.647 317.645 410.105 318.244H410.1C407.917 318.723 405.766 319.348 403.662 320.108V320.52C404.855 320.931 406.053 321.264 407.246 321.582C406.516 322.405 405.808 323.244 405.1 324.103C403.485 324.452 401.897 324.91 400.339 325.467V325.858C401.214 326.176 402.204 326.436 402.99 326.697C402.204 327.686 401.423 328.712 400.657 329.723C399.444 330.02 398.209 330.374 396.923 330.806V331.197C397.595 331.441 398.266 331.645 398.938 331.848C398.115 332.947 397.313 334.108 396.511 335.243C395.542 335.504 394.569 335.806 393.6 336.139V336.16L395.225 336.681C394.402 337.874 393.584 339.072 392.761 340.301C391.938 340.545 391.1 340.806 390.261 341.103V341.493L391.699 341.962C390.897 343.197 390.074 344.426 389.292 345.697C388.506 345.921 387.725 346.165 386.938 346.441V346.832L388.339 347.28C387.595 348.493 386.881 349.744 386.157 351.014C385.298 351.259 384.459 351.52 383.6 351.816V352.228C384.121 352.415 384.626 352.566 385.147 352.712L383.282 356.259L382.871 356.374C381.006 350.775 379.865 344.223 373.798 341.738C373.964 340.842 374.136 339.873 374.319 339.05L384.584 345.04C383.074 339.311 382.381 331.826 376.746 328.576C376.99 327.659 377.251 326.711 377.49 325.852L387.011 332.253C385.912 326.654 385.725 319.185 380.647 315.602C380.944 314.743 381.225 313.904 381.506 313.066L390.954 319.17C389.798 313.811 389.459 306.774 384.907 303.097C385.204 302.222 385.506 301.341 385.782 300.466L395.001 306.065C393.714 300.914 393.136 294.06 388.824 290.477C389.105 289.378 389.386 288.259 389.626 287.154L398.735 291.035C396.871 286.441 395.433 280.061 391.266 276.977C391.266 276.118 391.381 275.243 391.397 274.363L401.251 276.733C398.449 272.139 395.798 265.717 390.501 263.665C390.313 262.769 390.074 261.8 389.829 261.014L400.225 259.649C395.985 256.399 391.245 251.342 385.589 251.212L385.594 251.227C384.089 248.66 382.391 246.207 380.516 243.894L388.261 234.41C383.761 234.878 377.974 234.561 373.906 236.779C372.989 235.92 372.041 235.081 371.052 234.243L376.651 226.925C372.599 227.446 367.932 227.446 364.067 228.904C362.744 228.014 361.547 226.951 360.505 225.748L365.057 219.42C361.661 219.983 358.244 220.503 354.864 221.102C351.37 219.139 347.531 217.873 343.557 217.368C338.87 216.602 334.427 214.607 329.817 213.394C339.713 212.519 349.604 213.842 359.03 209.868C360.765 209.139 373.962 200.217 369.931 199.003C369.108 198.759 365.692 200.868 364.817 201.149V201.144C362.666 201.852 360.463 202.384 358.228 202.733C353.353 203.576 348.4 203.878 343.463 203.628C338.624 203.217 333.77 203.066 328.922 203.18C327.953 203.18 318.151 204.691 317.948 204.097C317.333 202.363 331.912 200.847 333.385 200.665L333.38 200.66C339.63 200.05 345.682 198.139 351.15 195.061C356.906 191.832 361.624 187.035 364.76 181.227C366.062 178.639 366.744 175.785 366.739 172.884C366.739 170.045 366.218 168.628 364.124 171.019C362.036 173.41 360.541 176.618 358.15 179.139C354.421 182.915 349.979 185.915 345.083 187.967C338.755 190.561 332.26 191.123 325.504 192.316C321.994 192.951 318.525 193.753 315.087 194.722C312.212 195.524 308.348 197.748 305.415 197.858C302.483 197.972 304.556 194.686 305.79 192.592C308.124 188.696 311.129 184.962 313.723 181.228C315.587 178.556 318.483 174.842 318.592 171.446C318.592 170.399 318.592 168.347 317.098 168.217C315.603 168.087 315.363 170.571 314.858 171.613C311.238 179.082 305.186 185.67 299.926 191.962C293.765 199.244 287.306 206.222 280.681 213.077C275.696 218.249 274.41 223.942 271.347 230.233L271.353 230.228C267.837 237.202 262.821 243.311 256.659 248.113C249.659 253.936 257.071 258.941 263.081 261.181C264.743 261.795 270.847 263.889 271.576 262.004C271.914 261.144 266.274 256.405 267.842 255.17V255.165C269.274 255.316 270.696 255.598 272.076 256.009C273.196 256.009 278.909 256.009 278.831 254.686C278.831 253.9 272.034 251.754 273.586 249.889C274.128 249.238 283.722 251.754 283.592 249.051C283.592 248.676 280.493 247.186 280.081 246.738C278.217 244.592 278.961 244.535 280.305 243.306C281.649 242.071 293.764 239.014 294.248 240.394C294.451 241.03 290.513 244.426 290.029 245.082L290.034 245.066C288.248 247.222 286.633 249.519 285.222 251.936C284.362 253.821 283.086 255.483 281.487 256.79C280.571 257.405 276.352 257.873 276.128 258.358C274.878 260.936 282.961 258.92 278.852 262.259C276.987 263.717 269.013 263.045 268.508 264.123C267.836 265.504 273.55 268.811 274.368 269.144L274.373 269.149C277.966 270.738 282.149 270.186 285.201 267.712C287.592 265.675 287.946 263.29 288.633 260.488C289.519 256.858 291.347 253.529 293.935 250.837C301.404 243.165 312.847 240.269 322.607 236.634C325.607 237.379 328.56 238.296 331.456 239.374C330.274 241.249 329.201 243.186 328.248 245.181L328.545 245.462C330.409 244.53 334.519 243.035 335.3 240.869L337.165 241.707C336.211 243.572 335.055 245.29 334.159 247.176L334.456 247.457C335.987 246.712 340.055 245.197 340.935 243.499L342.8 244.452C341.925 246.04 340.935 247.53 340.206 249.176L340.487 249.457C342.352 248.525 344.222 247.384 346.086 246.322L348.326 247.723L348.331 247.718C347.493 249.061 346.732 250.452 346.055 251.884L346.336 252.165C347.962 251.379 349.456 250.431 351.003 249.535C351.863 250.15 352.685 250.749 353.488 251.4L353.482 251.395C352.623 252.764 351.847 254.176 351.149 255.634L351.446 255.915H351.451C352.982 255.165 354.472 254.322 355.91 253.395C356.639 254.046 357.368 254.702 358.04 255.353C357.18 256.994 356.175 258.509 355.368 260.186L355.665 260.468C357.305 259.666 358.8 258.603 360.389 257.817C360.91 258.395 361.399 258.973 361.884 259.551V259.556C360.639 261.374 359.509 263.264 358.503 265.228L358.785 265.509C360.649 264.634 362.238 263.473 364.029 262.577C364.404 263.124 364.738 263.697 365.019 264.296C363.154 265.134 361.545 269.259 360.727 270.978L361.024 271.259C362.889 270.343 364.644 269.186 366.493 268.218C366.649 268.832 366.769 269.452 366.847 270.082C364.347 270.718 362.816 274.936 361.842 277.009L362.123 277.291C363.805 276.488 365.331 275.426 366.956 274.582C366.956 275.16 366.863 275.759 366.79 276.447C364.269 277.046 362.738 281.301 361.769 283.374L362.05 283.655C363.331 283.015 364.576 282.311 365.785 281.546L365.503 282.739C362.889 283.301 361.358 287.593 360.352 289.702L360.634 289.999C361.79 289.437 362.894 288.822 363.977 288.134L363.753 288.827C361.233 289.426 359.701 293.681 358.712 295.754L358.993 296.035C360.019 295.551 360.988 295.009 361.925 294.468L361.759 295.009C359.498 295.754 358.024 299.921 357.071 301.843L357.352 302.124C358.175 301.733 358.977 301.301 359.759 300.853L359.608 301.28C357.743 302.14 356.212 306.244 355.425 307.926L355.707 308.207C356.358 307.89 356.977 307.556 357.571 307.218V307.213C357.529 307.364 357.483 307.515 357.42 307.661C355.852 308.895 354.582 312.233 353.686 313.989L353.983 314.27C354.503 314.025 354.993 313.749 355.493 313.483H355.498C354.503 315.759 353.352 317.957 352.045 320.072L352.326 320.353C352.795 320.129 353.243 319.884 353.691 319.645C352.774 321.9 351.675 324.077 350.405 326.155L350.686 326.437C351.17 326.213 351.618 325.952 352.066 325.707C351.181 327.983 350.071 330.166 348.759 332.223L349.04 332.52L350.701 331.645C350.66 331.806 350.634 331.968 350.608 332.129C349.149 334.015 347.967 336.093 347.097 338.311L347.394 338.593C348.139 338.239 348.868 337.848 349.576 337.452V337.806C347.821 338.666 346.274 342.811 345.509 344.395L345.79 344.676C346.837 344.171 347.826 343.629 348.774 343.072V343.593C346.405 344.301 344.894 348.483 343.941 350.478L344.222 350.759H344.227C345.597 350.098 346.931 349.358 348.222 348.541L348.108 349.509C344.972 349.697 343.441 354.155 342.3 356.546L342.582 356.827C344.446 355.968 345.962 354.832 347.733 353.952C347.733 354.515 347.733 355.093 347.639 355.671C343.623 355.093 342.04 359.702 340.696 362.671L340.977 362.952C342.696 362.129 346.576 360.692 347.509 358.884V361.739C344.316 361.89 342.769 366.369 341.608 368.796L341.905 369.077C343.769 368.145 345.639 367.004 347.503 365.957V368.197C345.467 368.999 343.936 373.145 343.097 374.916L343.378 375.213H343.384C344.858 374.484 346.29 373.682 347.681 372.806C347.681 373.593 347.681 374.395 347.795 375.197H347.79C346.571 377.072 345.488 379.03 344.54 381.056L344.837 381.338C345.957 380.796 347.04 380.181 348.087 379.473C348.087 380.572 348.274 381.676 348.384 382.775H348.389C347.498 384.161 346.696 385.609 345.998 387.103L346.28 387.385C347.118 386.994 347.941 386.546 348.743 386.098C348.894 387.348 349.061 388.619 349.248 389.833C348.597 390.916 347.998 392.015 347.384 393.192L347.665 393.473C348.316 393.156 348.936 392.838 349.53 392.505C349.733 393.869 349.998 395.249 350.238 396.609C349.993 397.02 349.769 397.432 349.566 397.859C345.196 395.994 341.019 393.806 336.165 395.676C335.826 395.286 335.514 394.853 335.175 394.463L344.863 391.255C339.972 388.791 334.258 384.645 328.551 385.895C328.176 385.411 327.821 384.926 327.504 384.437L336.837 381.989C332.415 379.395 327.186 375.103 321.905 375.494L320.858 373.63L329.91 371.895C325.806 369.114 321.046 364.671 315.874 364.426C315.369 363.458 314.885 362.562 314.4 361.515L323.379 359.65C319.421 357.072 314.812 352.947 309.958 352.499L308.333 349.197L316.828 347.088C312.948 344.755 308.448 340.963 303.76 340.442C302.791 338.577 301.765 336.916 300.719 335.234L308.187 332.229C304.193 330.51 299.583 327.635 295.12 327.432L295.114 327.426C293.89 325.937 292.588 324.52 291.213 323.171L299.015 318.39C293.937 317.176 287.573 314.525 282.479 316.525C281.36 315.89 280.203 315.312 278.99 314.77L286.459 305.119C280.203 305.906 272.308 305.588 268.428 311.484L267.626 311.333L266.433 299.088C263.688 302.432 259.751 305.973 258.199 310.083C256.668 309.968 255.136 309.932 253.605 309.932L252.579 302.072C250.49 304.796 248.324 307.505 246.287 310.265C244.423 310.432 242.704 310.656 240.912 310.958C241.829 309.557 247.313 296.026 243.36 298.208C241.813 299.067 239.928 302.817 238.49 304.218L238.48 304.223C236.058 306.562 233.428 308.671 230.621 310.536C225.261 314.156 219.293 316.395 213.818 319.645C212.605 320.354 201.724 328.416 201.276 328.025C199.896 326.812 211.787 318.265 212.98 317.385C217.886 313.906 222.058 309.499 225.266 304.411C228.188 299.583 229.99 294.161 230.526 288.547C230.875 285.385 230.464 282.182 229.334 279.213C228.641 277.479 226.662 272.552 224.927 275.479C224.443 276.302 224.927 279.213 224.927 280.276C224.776 282.286 224.443 284.276 223.938 286.229C222.667 291.213 220.433 295.896 217.37 300.026C213.13 305.792 207.474 309.62 202.063 314.141C199.261 316.625 196.615 319.141 194.131 321.677C192.022 323.808 189.782 327.651 187.282 329.146C184.782 330.641 184.97 326.719 185.006 324.386C185.006 319.756 185.866 315.053 186.22 310.537C186.465 307.328 187.188 302.62 185.584 299.615C185.1 298.698 184.089 296.927 182.688 297.563C181.287 298.198 182.298 299.953 182.392 301.037C183.121 309.495 181.048 318.469 179.517 326.725C177.819 335.834 175.782 344.886 173.485 353.85C171.47 361.636 173.485 368.001 173.803 375.767V375.757C173.933 383.012 172.579 390.215 169.824 396.923C166.631 405.434 175.553 406.126 181.881 405.08C183.616 404.783 189.965 403.585 189.668 401.59C189.517 400.673 182.199 399.314 183.006 397.522C184.324 396.939 185.688 396.475 187.09 396.142C188.1 395.658 192.991 392.689 192.319 391.642C191.892 390.991 184.85 392.465 185.376 390.095C185.543 389.106 195.157 386.751 193.647 384.496C193.329 384.027 189.465 384.496 188.553 383.788C186.689 382.329 187.282 382.199 188.402 380.559C189.319 379.215 197.288 370.553 198.61 371.694C199.095 372.121 197.433 376.996 197.267 377.856V377.845C196.777 380.6 196.522 383.392 196.501 386.194C196.662 388.277 196.34 390.371 195.569 392.314C195.084 393.303 191.668 395.788 191.704 396.329C191.892 399.168 199.022 393.21 195.642 398.887C194.819 400.267 187.876 404.298 187.933 405.064C188.121 407.824 197.902 406.033 199.022 405.491C203.215 403.585 205.538 399.033 204.621 394.517C202.756 386.267 202.605 380.386 207.027 372.642C212.256 363.533 220.376 355.522 227.095 347.481C227.225 347.965 227.376 348.434 227.543 348.898H227.731C228.553 346.262 229.928 343.83 231.762 341.767C232.1 343.252 232.522 344.715 233.033 346.153H233.444C234.173 344.064 236.001 340.122 234.902 337.997L235.069 337.793L236.934 337.194C237.512 339.267 237.996 341.34 238.798 343.356H239.21C239.809 341.637 241.486 338.038 241.074 336.111L243.35 335.642C243.949 337.507 244.282 339.377 244.918 341.132H245.329C246.022 339.137 246.47 337.08 247.064 335.064C247.923 334.95 248.782 334.84 249.621 334.783C250.199 336.648 250.538 338.403 251.168 340.179H251.579C252.215 338.314 252.533 336.444 253.147 334.58H255.725C256.361 336.444 256.715 338.444 257.387 340.346H257.595C258.23 338.481 258.564 336.611 259.142 334.856L261.324 335.174H261.33C261.757 337.424 262.382 339.627 263.194 341.767H263.605C264.257 339.903 264.616 337.903 265.246 336.017H265.251C265.887 336.122 266.512 336.288 267.116 336.517C266.35 338.382 268.163 342.47 268.798 344.262H269.189C269.897 342.283 270.309 340.247 270.923 338.231V338.236C271.486 338.59 272.027 338.971 272.548 339.377C271.225 341.58 273.126 345.669 273.892 347.814H274.397C275.012 346.059 275.366 344.247 275.908 342.476C276.298 342.924 276.694 343.392 277.064 343.877C275.72 346.096 277.626 350.184 278.387 352.351H278.803C279.272 350.976 279.673 349.58 279.996 348.169C280.22 348.507 280.444 348.84 280.647 349.215C279.189 351.455 281.132 355.58 281.918 357.783H282.329C282.741 356.538 283.095 355.325 283.392 354.143L283.731 354.778C282.366 356.997 284.272 361.085 285.038 363.252H285.449C285.824 362.189 286.121 361.122 286.402 360.059L286.663 360.564C285.6 362.695 287.449 366.726 288.158 368.721H288.569C288.866 367.861 289.147 366.986 289.371 366.127L289.574 366.538C288.866 368.403 290.673 372.455 291.293 374.19H291.684C291.928 373.497 292.132 372.825 292.335 372.153C292.335 372.283 292.465 372.434 292.538 372.58C292.293 374.559 293.751 377.825 294.402 379.653H294.793C294.996 379.111 295.147 378.554 295.314 378.012L295.319 378.018C296.22 380.33 296.955 382.71 297.522 385.127H297.934C298.1 384.643 298.23 384.158 298.381 383.669V383.674C299.324 385.913 300.079 388.231 300.642 390.596H301.053C301.22 390.111 301.371 389.606 301.522 389.101L301.517 389.106C302.486 391.351 303.241 393.684 303.777 396.064H304.168C304.371 395.486 304.559 394.887 304.73 394.2L305.012 394.591C305.298 396.955 305.928 399.262 306.876 401.445H307.267C307.548 400.658 307.788 399.877 308.012 399.091L308.236 399.387C307.585 401.252 309.413 405.268 309.991 406.856H310.402C310.777 405.773 311.095 404.69 311.371 403.606C311.486 403.736 311.574 403.888 311.689 404.033C310.496 406.2 312.381 410.231 313.105 412.32H313.517L313.522 412.325C314.012 410.887 314.428 409.424 314.772 407.939L315.387 408.684C313.298 411.038 315.387 415.294 316.225 417.794H316.637C317.288 415.929 317.626 414.059 318.241 412.195C318.616 412.622 319.006 413.033 319.397 413.466C316.168 415.872 318.334 420.278 319.397 423.34H319.788C320.423 421.476 322.194 417.741 321.543 415.872C322.194 416.58 322.829 417.273 323.501 417.96C321.335 420.314 323.407 424.585 324.303 427.127H324.694C325.402 425.111 325.871 423.038 326.465 420.986L328.012 422.575C327.152 424.569 328.98 428.585 329.637 430.45H330.059C330.6 428.898 331.053 427.314 331.402 425.71C332.001 426.252 332.559 426.809 333.158 427.335C334.121 430.648 334.658 434.075 334.762 437.528C334.647 441.017 334.762 444.507 334.949 447.981C335.34 454.252 336.163 460.486 337.413 466.647C338.902 475.241 341.647 483.569 345.574 491.361C351.876 502.845 361.517 512.147 373.214 518.038C384.917 523.934 398.132 526.147 411.11 524.382C403.444 540.018 403.136 558.257 410.272 574.147C380.408 562.053 354.272 541.798 333.329 517.533H333.324C330.688 514.767 328.266 511.798 326.084 508.663C324.631 505.798 323.589 502.736 323.006 499.574C321.235 492.913 319.798 486.153 318.542 479.361C317.141 471.762 315.949 464.126 315.089 456.44C321.959 442.461 307.475 427.024 293.079 432.413C302.105 435.955 306.631 446.074 303.256 455.162H302.902C298.589 440.1 279.699 433.641 267.208 443.365C271.359 443.912 275.083 446.193 277.453 449.641C279.823 453.094 280.62 457.386 279.641 461.454C268.625 455.089 254.834 454.324 244.995 463.318C236.537 470.99 233.178 482.974 232.636 494.042C235.511 481.313 244.787 469.365 259.032 470.13C274.412 470.969 286.433 484.13 293.381 496.729C300.324 509.328 304.001 525.213 301.616 539.849C299.954 550.005 293.756 563.985 282.126 565.985C302.657 566.751 312.178 545.454 312.85 528.016L323.34 530.464C327.335 531.396 329.444 534.198 333.272 535.672C355.184 567.631 385.09 594.251 420.575 610.563C417.247 615.901 411.71 619.474 405.476 620.307C410.674 624.318 417.445 625.688 423.794 624.021C430.148 622.354 435.372 617.839 437.934 611.797C439.949 607.037 439.277 602.037 440.194 597.068C443.777 577.526 458.861 560.218 478.235 554.937C469.423 570.973 469.188 590.349 477.621 606.588C482.615 605.317 487.423 603.374 491.902 600.817C492.407 602.4 493.032 603.942 493.767 605.431C493.392 610.358 493.767 615.864 492.626 620.718C491.579 625.291 489.454 629.9 487.938 634.363C487.454 635.78 484.074 642.988 485.308 643.863C486.542 644.738 490.61 642.556 491.6 642.166C489.433 644.947 488.615 648.514 486.782 651.499H486.787C484.798 654.514 481.798 656.718 478.329 657.712C473.319 659.749 468.147 661.374 462.87 662.567C452.178 664.754 441.261 665.66 430.354 665.254C416.505 664.671 402.75 662.707 389.286 659.395C385.349 658.499 380.328 657.863 376.818 656.051C370.677 652.879 365 644.999 361.214 639.4C365.859 621.63 346.391 606.343 330.135 614.37C334.286 616.406 337.697 619.687 339.89 623.755C342.083 627.828 342.947 632.484 342.359 637.068C335.135 622.808 313.536 624.318 308.369 639.437V639.443C313.281 636.625 319.208 636.193 324.479 638.265C329.75 640.338 333.791 644.693 335.474 650.099C327.812 653.167 321.51 658.875 317.703 666.192C332.73 655.442 353.896 662.291 365.75 674.291C379.359 688.067 385.11 710.598 375.906 728.312C392.037 718.026 396.906 695.255 387.422 675.244C407.468 683.567 428.49 684.671 449.771 683.833C457.891 683.515 466.031 682.734 474.036 681.76C479.317 681.145 485.234 679.802 490.558 679.895C496.365 680.099 500.86 684.656 506.422 685.849C510.974 683.984 515.604 682.375 519.489 679.145C523.968 682.041 529.458 686.182 530.146 691.911C536.343 684.984 533.672 671.958 531.583 663.911C538.453 651.349 540.916 636.843 538.583 622.714C541.234 621.646 543.739 620.255 546.052 618.573C558.057 637.166 561.76 659.928 556.26 681.365C492.681 740.688 399.073 759.933 316.98 731.6C294.007 723.683 272.355 712.354 252.745 698.001C253.323 695.928 246.829 692.511 245.579 691.709C241.74 689.563 238.225 686.892 235.126 683.777C230.521 679.683 226.073 675.428 221.776 671.011C223.026 669.985 226.276 667.485 226.016 665.637C225.792 664.178 222.896 662.668 221.834 661.902C217.318 658.709 212.11 656.303 208.448 652.027L208.454 652.022C207.865 652.678 207.24 653.303 206.584 653.892C196.131 640.866 187.021 626.809 179.406 611.944C183.255 614.767 187.469 617.053 191.932 618.741C194.485 623.459 195.266 628.933 194.135 634.178C200.385 632.345 205.542 627.892 208.266 621.97C215.094 622.272 221.922 621.256 228.37 618.985C229.907 622.73 230.412 626.824 229.823 630.834C234.125 629.23 237.839 626.35 240.469 622.584C243.094 618.813 244.511 614.334 244.532 609.746C247.016 607.688 249.302 605.407 251.365 602.928C257.448 604.418 262.636 608.365 265.682 613.829C268.536 609.256 269.667 603.813 268.87 598.48C268.073 593.146 265.401 588.271 261.333 584.73C261.688 583.59 261.984 582.418 262.286 581.241C268.818 578.793 276.12 579.533 282.036 583.236C282.333 577.637 280.541 572.126 277.01 567.772C273.479 563.417 268.458 560.527 262.922 559.662C262.521 557.355 261.963 555.079 261.26 552.845C266.875 548.079 274.474 546.376 281.588 548.292C280.021 542.105 275.911 536.865 270.281 533.866C264.651 530.861 258.01 530.371 252 532.517C254.979 526.428 260.562 522.012 267.177 520.517C262.838 515.689 256.641 512.954 250.15 513.006C243.661 513.058 237.504 515.887 233.238 520.777C231.176 519.803 229.051 518.965 226.874 518.277C228.749 513.538 232.197 509.585 236.634 507.079C231.259 503.793 224.759 502.902 218.697 504.611C212.634 506.324 207.561 510.485 204.697 516.095C200.41 516.579 196.197 517.59 192.155 519.1C190.582 514.631 190.452 509.788 191.78 505.245C186.275 506.48 181.426 509.725 178.192 514.344C174.953 518.964 173.552 524.626 174.27 530.224C172.567 531.818 170.973 533.516 169.494 535.318C169.448 533.016 169.75 530.719 170.39 528.506C164.14 529.86 158.76 533.803 155.588 539.349C153.78 528.329 152.707 517.199 152.374 506.032H149.629C148.259 560.672 164.432 614.319 195.775 659.099C192.368 659.724 188.863 659.567 185.525 658.63C186.728 663.817 189.722 668.416 193.978 671.609C198.238 674.807 203.488 676.396 208.806 676.104C213.061 681.156 217.503 686.062 222.134 690.828C218.832 691.401 215.441 691.219 212.217 690.307C213.603 696.172 217.264 701.245 222.399 704.395C227.53 707.551 233.712 708.525 239.566 707.109C248.326 714.557 257.577 721.415 267.249 727.639C262.624 729.514 257.509 729.79 252.707 728.426C254.52 736.077 260.171 742.238 267.639 744.707C275.108 747.171 283.317 745.587 289.333 740.52C293.999 742.91 298.734 745.16 303.535 747.275C298.916 751.311 292.843 753.275 286.738 752.707C293.681 768.967 316.697 770.868 326.254 756.03C332.686 758.16 339.207 760.025 345.817 761.629V761.634C342.374 768.483 335.66 773.098 328.03 773.858C330.634 777.645 334.337 780.546 338.634 782.176C342.931 783.806 347.624 784.087 352.087 782.988C359.03 781.233 368.27 774.16 368.457 766.186C375.926 767.342 383.503 768.201 391.082 768.707C389.176 776.352 383.395 782.436 375.853 784.723C380.629 789.452 387.28 791.785 393.962 791.082C400.65 790.374 406.665 786.707 410.347 781.082C412.212 778.301 414.993 772.717 414.082 769.285C422.295 769.113 430.498 768.571 438.686 767.66C438.103 775.139 433.811 781.832 427.259 785.488C442.899 795.399 463.565 782.368 461.551 764.061C466.978 762.978 472.358 761.733 477.696 760.327C478.738 764.322 478.66 768.53 477.457 772.483C476.259 776.436 473.988 779.983 470.904 782.723C488.748 789.124 506.15 771.092 499.446 753.567C505.383 751.4 511.243 749.051 517.014 746.452L517.009 746.457C518.66 753.265 517.029 760.457 512.602 765.889C520.524 767.254 528.576 764.316 533.764 758.176C538.951 752.035 540.493 743.602 537.821 736.02C542.425 733.442 546.972 730.739 551.466 727.9C553.081 733.936 552.097 740.374 548.758 745.655C556.518 746.04 563.935 742.426 568.409 736.077C572.883 729.722 573.789 721.525 570.805 714.347C574.279 711.675 577.69 708.936 581.013 706.097H581.018C582.044 710.832 581.518 715.769 579.502 720.171C586.601 719.592 593.018 715.707 596.814 709.686C600.617 703.66 601.361 696.197 598.825 689.541C601.611 686.702 604.335 683.812 607.002 680.859V680.864C607.023 683.208 606.684 685.546 605.991 687.786C611.96 686.556 617.179 682.968 620.465 677.838C623.757 672.708 624.835 666.468 623.465 660.535C625.892 657.249 628.246 653.926 630.522 650.53V650.957H630.517C634.413 649.025 637.668 646.009 639.892 642.27C642.116 638.53 643.21 634.228 643.043 629.884C645.116 626.15 647.111 622.27 648.996 618.384C670.256 616.926 670.517 640.171 664.283 654.353C656.929 671.156 640.256 687.952 621.575 690.864C631.971 693.848 638.695 702.437 637.163 713.489C635.986 722.094 630.798 729.844 624.975 736.057C610.601 751.344 586.559 762.995 565.241 759.167C566.428 762.625 566.553 766.359 565.595 769.886C524.777 781.016 483.048 788.474 440.901 792.172V792.917C461.636 792.813 482.349 791.568 502.948 789.183C522.229 787.016 542 784.63 560.645 779.047C558.541 781.563 556.125 783.802 553.463 785.714C607.89 772.807 654.588 738.036 682.562 689.594C710.535 641.156 717.311 583.328 701.286 529.74C685.26 476.152 647.859 431.527 597.89 406.391C600.957 417.709 599.682 429.76 594.301 440.178C588.916 450.594 579.828 458.615 568.823 462.656C567.573 458.511 566.677 453.511 568.916 449.589C561.672 451.12 556.875 459.427 553.818 465.438C550.437 465.49 547.062 465.172 543.755 464.485C544.542 460.751 546.016 456.516 549.354 454.219C543.099 452.615 536.286 456.646 531.266 459.985C527.995 458.251 524.943 456.136 522.178 453.678C524.698 449.495 528.167 444.641 533.375 443.672C527.776 439.323 519.078 440.667 512.75 441.99C511.787 440.37 510.917 438.693 510.156 436.969C503.359 431.949 508.104 426.256 513.891 423.475C521.136 419.985 529.625 418.881 537.541 418.49C534.198 407.027 537.656 394.636 549.057 389.48C559.849 384.625 572.912 386.98 583.421 391.344C588.239 374.541 604.812 370.532 619.26 377.683C636.062 385.954 647.65 403.948 651.588 421.771C662.416 403.516 682.708 407.099 694.52 421.922C707.848 438.594 712.197 464.854 703.853 484.547C721.38 482.177 733.514 503.063 738.665 516.693C746.004 536.146 748.728 562.838 736.931 581.203L736.936 581.208C741.899 585.885 744.712 592.411 744.701 599.239C744.311 606.708 740.056 614.75 737.233 621.452C731.019 636.999 723.249 651.879 714.03 665.859L714.608 666.343C728.087 651.765 736.671 634.609 746.097 617.437C754.931 601.369 761.551 584.186 765.775 566.349C780.217 505.453 765.988 441.297 727.16 392.215C688.327 343.137 629.165 314.527 566.587 314.575L566.586 314.562ZM286.133 225.202C285.273 226.077 283.388 228.936 282.08 228.936C278.851 229.384 281.466 225.446 282.08 224.249C282.695 223.056 283.945 219.155 285.2 218.816C288.185 218.129 287.461 224.025 286.132 225.202L286.133 225.202ZM184.029 362.495C183.711 363.688 183.45 367.031 182.403 367.834C179.825 369.828 180.143 365.11 180.091 363.766C180.034 362.422 179.174 358.406 180.091 357.511C182.31 355.328 184.57 360.834 184.028 362.495H184.029ZM376.509 369.214C376.342 369.568 376.191 369.943 376.024 370.297L376.019 370.302C374.68 369.495 373.196 368.969 371.649 368.75V366.12L374.857 367.464L373.493 367.891V368.302C374.509 368.656 375.514 368.953 376.503 369.219L376.509 369.214ZM353.435 412.146L353.659 412.984L352.951 412.385L353.435 412.146ZM529.742 222.092C527.575 220.525 525.466 218.842 523.211 217.405C522.351 214.27 521.346 211.15 520.185 208.072C524.534 211.395 527.747 217.108 529.742 222.093L529.742 222.092ZM472.977 172.024C472.346 174.191 470.602 175.853 468.404 176.373C467.247 176.764 462.69 178.54 463.101 175.832C463.305 174.524 466.836 173.071 467.768 172.488C468.143 172.248 474.789 168.16 472.976 172.024L472.977 172.024ZM381.045 356.931L380.17 357.212V357.603C380.805 357.827 381.44 358.014 382.034 358.218C381.435 359.317 380.841 360.384 380.263 361.504L379.498 361.707V361.712C378.117 358.488 375.326 356.077 371.935 355.176C371.935 354.28 372.102 353.421 372.18 352.525L381.045 356.931ZM350.935 401.024C351.086 401.79 351.274 402.556 351.42 403.321V403.488C349.112 403.321 346.805 403.847 344.794 404.998C344.44 404.66 344.102 404.306 343.768 403.952L350.935 401.024ZM176.962 538.091C177.821 539.659 181.556 545.56 183.774 545.56C185.342 545.56 186.613 543.471 187.509 542.367C191.129 537.628 193.634 531.951 198.243 528.07C197.425 527.315 196.665 526.502 195.967 525.643C198.077 524.924 200.233 524.362 202.426 523.961C202.259 525.586 201.733 529.768 203.264 530.867C204.457 531.742 207.556 530.752 208.863 530.513C214.295 529.544 219.691 527.544 225.29 527.919V525.586C226.691 526.07 228.071 526.612 229.415 527.211C228.18 530.346 226.691 533.294 230.384 534.435C234.081 535.575 238.243 535.31 241.956 535.591C242.649 536.242 243.337 536.935 243.993 537.627C241.493 540.127 240.258 541.138 242.91 543.638H242.915C245.821 545.966 248.946 548.007 252.248 549.742C253.738 552.945 254.847 556.315 255.55 559.783C251.816 560.492 243.863 562.507 246.347 567.252C248.514 571.356 252.639 574.721 255.477 578.341C255.311 579.179 255.102 580.002 254.878 580.825C250.941 579.33 241.925 576.773 242.243 583.007C242.524 588.403 244.743 593.575 245.118 598.986C244.446 599.731 243.753 600.481 243.045 601.205C241.498 597.471 234.456 586.273 230.279 591.554C226.097 596.835 225.108 603.95 220.535 609.043H220.529C221.894 610.028 223.149 611.163 224.264 612.423C219.717 613.835 214.972 614.538 210.206 614.491C210.555 610.371 209.769 606.236 207.93 602.528C206.717 600.101 202.477 593.345 199.248 593.194C195.514 593.194 190.66 606.002 188.628 608.762C181.207 604.627 175.071 598.517 170.899 591.112C166.727 583.705 164.686 575.294 164.998 566.8C169.18 561.815 171.717 555.471 176.758 551.212V551.217C174.732 549.352 173.071 547.128 171.847 544.665C173.331 542.321 175.029 540.118 176.925 538.092L176.962 538.091Z" fill="black"/>
<path d="M768.147 406.575L763.256 352.706L751.068 355.69L741.063 313.133L734.381 322.352L710.917 270.086L705.729 280.503L677.593 236.227V249.295L652.765 218.248L653.328 228.649L623.984 202.68L618.682 204.883L591.895 179.476L588.348 188.809L572.578 173.768L576.312 183.622L560.577 189.95L584.765 192.435L572.578 198.784L585.031 201.284L585.026 201.278C577.078 202.284 570.75 208.43 569.515 216.346C570.859 215.873 572.26 215.57 573.677 215.43C572.427 216.643 571.244 217.935 570.151 219.294C561.177 219.164 553.468 225.643 552.062 234.508C555.375 233.315 558.964 233.127 562.385 233.966C561.313 237.43 560.682 241.018 560.516 244.643C556.469 247.331 553.677 251.539 552.766 256.31C551.859 261.086 552.906 266.023 555.682 270.012C557.375 266.606 560.099 263.82 563.469 262.059C564.156 263.83 564.969 265.549 565.896 267.21C562.453 270.893 560.708 275.846 561.083 280.872C561.458 285.893 563.922 290.533 567.87 293.663C568.766 288.304 572.047 283.643 576.797 281.007C575.365 285.898 576.073 291.174 578.745 295.513C581.411 299.856 585.802 302.867 590.812 303.799C589.031 298.492 589.854 292.653 593.036 288.044C595.031 288.576 597.068 288.956 599.12 289.18C601.422 297.836 609.729 303.486 618.625 302.456C615.578 298.18 614.568 292.779 615.865 287.69C617.078 287.336 618.255 286.946 619.412 286.477C625.682 292.326 635.209 292.946 642.182 287.951C637.948 285.92 634.677 282.295 633.094 277.873C635.24 275.862 637.182 273.643 638.88 271.242C645.963 270.378 651.87 265.414 653.943 258.586C651.031 259.18 648.021 259.044 645.172 258.196C646.724 252.737 647.182 247.029 646.516 241.393C647.995 240.528 649.344 239.445 650.511 238.185L676.084 254.315H669.178L699.042 281.513H691.109L732.364 327.601L720.453 329.674L748.228 359.428L737.124 358.215L762.494 408.001L753.775 403.392L777.578 474.715L777.572 400.824L768.147 406.575ZM642.485 227.602L649.579 230.68C647.407 230.638 645.261 230.195 643.251 229.373C643.006 228.794 642.761 228.18 642.485 227.602L642.485 227.602ZM597.329 203.632H596.678L596.137 203.315L597.329 203.632ZM639.215 244.138C639.428 247.606 639.131 251.08 638.34 254.461C637.511 253.773 636.746 253.002 636.064 252.164C632.48 255.898 625.59 256.903 622.569 260.804C621.022 262.82 621.022 262.669 623.09 265.153V265.158C625.001 267.372 627.423 269.091 630.147 270.158C629.532 270.851 628.897 271.502 628.283 272.138C624.381 271.935 620.423 270.57 616.501 270.721C611.777 270.888 613.699 276.882 615.007 280.054C614.204 280.336 613.381 280.596 612.559 280.799C610.074 278.935 606.809 275.2 603.803 274.492C600.35 273.632 599.288 278.617 598.783 281.606L598.788 281.601C595.642 281.153 592.569 280.283 589.658 279.007C587.345 275.757 584.876 269.674 581.017 273.726C580.178 273.033 579.355 272.289 578.59 271.523C578.293 269.247 578.59 265.101 577.152 263.2C575.715 261.294 574.595 261.893 572.168 262.882C571.684 261.929 571.215 261.018 570.803 259.971H571.829C571.251 255.528 572.595 251.143 573.1 246.773C573.606 242.403 573.231 241.304 568.34 241.862C568.533 240.315 568.835 238.778 569.236 237.268C569.72 237.627 570.178 238.018 570.616 238.429C573.548 234.492 578.085 232.325 581.632 229.096C582.434 228.351 583.892 227.398 583.835 226.185C583.835 224.617 579.371 222.023 578.236 221.445V221.44C579.798 219.836 581.507 218.388 583.35 217.112C585.059 217.898 586.626 218.955 587.996 220.247C590.85 216.513 595.22 214.07 598.824 211.028C605.397 210.153 611.126 214.034 617.064 216.627C623.877 219.575 629.7 220.882 633.867 227.362C631.664 229.06 622.669 232.961 622.669 236.08C622.669 238.211 627.784 241.268 629.445 242.112L629.435 242.106C632.492 243.648 635.924 244.294 639.331 243.971C639.331 243.971 639.216 244.044 639.216 244.138L639.215 244.138Z" fill="black"/>
</svg>
