<svg width="934" height="934" viewBox="0 0 934 934" fill="none" xmlns="http://www.w3.org/2000/svg">
<path d="M660.145 510.489C659.9 509.546 659.541 508.635 659.062 507.786C654.333 508.624 649.676 509.838 645.141 511.421C648.911 515.041 650.661 520.286 649.823 525.442C653.266 525.01 656.359 523.13 658.328 520.276C660.297 517.422 660.958 513.864 660.146 510.489L660.145 510.489Z" fill="black"/>
<path d="M680.665 512.676C681.498 510.405 681.608 507.936 680.983 505.597C675.988 505.535 670.993 505.873 666.051 506.608C669.816 510.222 671.561 515.457 670.717 520.608C675.27 520.061 679.119 516.988 680.665 512.676L680.665 512.676Z" fill="black"/>
<path d="M696.399 506.835C691.935 506.08 687.414 505.669 682.883 505.601C685.424 509.049 686.461 513.382 685.758 517.606C691.377 516.924 695.789 512.46 696.398 506.835H696.399Z" fill="black"/>
<path d="M705.239 517.716C709.015 517.137 712.286 514.788 714.031 511.387C710.374 510.049 706.635 508.96 702.833 508.122C703.775 511.304 703.682 514.705 702.572 517.83C703.463 517.887 704.353 517.846 705.239 517.715L705.239 517.716Z" fill="black"/>
<path d="M715.092 521.449C719.821 523.522 725.347 522.386 728.868 518.61C725.571 516.652 722.154 514.891 718.639 513.35C718.253 516.329 717.019 519.142 715.092 521.449H715.092Z" fill="black"/>
<path d="M644.373 528.835C644.665 532.877 645.217 536.893 646.035 540.856C650.607 537.2 651.936 530.804 649.186 525.627C647.805 527.002 646.17 528.091 644.373 528.835V528.835Z" fill="black"/>
<path d="M647.078 544.915C648.156 548.968 649.5 552.941 651.115 556.806C656.276 552.624 657.109 545.061 652.979 539.858C651.479 542.02 649.448 543.759 647.078 544.915H647.078Z" fill="black"/>
<path d="M662.893 550.595C661.549 555.444 657.991 559.366 653.299 561.179C655.174 565.111 657.325 568.903 659.736 572.528C669.856 569.955 671.757 555.954 662.893 550.596V550.595Z" fill="black"/>
<path d="M743.586 450.649C736.039 403.31 716.466 358.706 686.747 321.097C657.023 283.493 618.143 254.144 573.83 235.868C573.83 176.508 525.299 126.518 465.434 127.004L465.429 127.009C445.289 127.238 425.606 133.05 408.574 143.806C407.511 148.192 408.314 153.384 413.616 154.447C409.881 155.587 406.001 156.666 405.142 160.999H405.136C404.407 164.837 406.907 168.546 410.735 169.306C407.001 170.65 403.006 171.791 402.074 176.155C401.657 178.035 402.017 179.999 403.074 181.608C404.126 183.212 405.787 184.327 407.678 184.686C403.944 186.275 399.876 187.619 398.959 192.004C398.522 193.9 398.871 195.89 399.928 197.52C400.98 199.15 402.652 200.285 404.558 200.666C400.73 202.53 397.089 204.061 395.766 208.41C395.319 210.192 394.964 211.994 394.704 213.806C393.938 217.541 393.194 221.384 392.428 225.176H392.423C332.975 241.697 280.668 277.447 243.689 326.837C206.705 376.233 187.127 436.488 188.017 498.184C188.908 559.881 210.211 619.544 248.601 667.851C255.539 676.559 262.981 684.845 270.888 692.679C275.034 696.783 279.3 700.762 283.695 704.606C287.914 708.34 293.456 714.762 298.982 716.142C298.815 707.835 298.795 698.762 301.951 690.945C305.581 682.564 311.071 675.122 318.003 669.179C321.867 665.69 324.18 664.252 319.701 660.185C316.544 657.289 313.409 654.325 310.367 651.32V651.315C303.274 644.315 296.966 636.57 291.55 628.206C275.467 603.351 268.023 573.888 270.389 544.378C272.753 514.867 284.785 486.962 304.618 464.982L307.066 467.429C309.493 465.002 311.936 462.575 314.139 459.961C317.873 455.461 320.41 449.898 325.113 446.43L346.149 467.451C357.816 455.764 367.127 441.749 368.81 424.93L368.815 424.925C396.675 417.149 426.299 418.524 453.321 428.841C480.347 439.159 503.342 457.883 518.93 482.253C525.633 492.743 529.774 503.947 534.555 515.332C542.956 535.723 557.457 553.02 576.071 564.853C600.675 580.14 631.905 584.099 659.905 577.379C645.941 558.186 639.623 534.483 642.186 510.89C608.587 512.869 583.779 479.639 592.587 447.775H592.593C595.207 438.551 600.369 430.254 607.478 423.822C614.587 417.395 623.363 413.093 632.801 411.411C651.67 408.181 671.831 416.301 681.931 432.837C658.691 407.9 615.962 412.004 601.666 444.431C588.411 474.634 611.15 507.019 642.526 510.775C672.157 497.942 706.261 500.91 733.229 518.671C743.598 497.603 747.218 473.848 743.588 450.65L743.586 450.649ZM629.961 536.832C634.185 546.42 637.794 556.264 640.768 566.305C632.695 558.753 628.685 547.816 629.961 536.832ZM660.273 471.05C644.554 470.227 631.622 459.087 624.174 445.868C632.481 441.128 643.138 440.696 650.31 447.732C656.581 453.894 660.82 463.503 665.409 470.992V470.997C663.7 471.18 661.981 471.195 660.273 471.049L660.273 471.05ZM612.898 301.984C616.742 298.364 620.908 305.062 623.033 307.582C625.164 310.103 631.976 315.629 628.632 319.343C624.804 323.504 620.736 316.301 618.663 313.874C616.596 311.447 608.882 305.812 612.898 301.983V301.984ZM595.554 286.38C591.819 291.213 581.403 280.65 578.043 278.484C574.684 276.317 560.663 271.145 563.522 265.734C566.584 259.89 578.829 270.103 582.095 272.213C585.366 274.322 599.569 281.15 595.559 286.437L595.554 286.38ZM542.299 256.344C540.992 260.078 537.294 258.489 534.7 257.614C530.596 256.198 526.435 254.916 522.231 253.771C518.497 252.724 503.398 251.906 505.805 245.521C507.914 239.922 521.242 245.724 525.217 246.844C529.196 247.963 544.539 250.166 542.299 256.344L542.299 256.344ZM447.996 239.208C456.439 238.593 464.908 238.442 473.366 238.76C475.996 238.853 480.46 238.145 482.085 240.775H482.079C482.72 241.864 482.767 243.197 482.204 244.327C481.647 245.458 480.553 246.228 479.298 246.374C475.564 247.14 470.434 246.036 466.663 245.999C462.892 245.963 458.6 245.999 454.569 246.223C452.033 246.338 447.829 247.546 445.741 245.588L445.736 245.593C444.699 244.577 444.345 243.046 444.829 241.682C445.314 240.312 446.548 239.343 447.996 239.208L447.996 239.208ZM399.466 209.098C400.362 204.635 412.83 200.864 416.602 199.353C423.133 196.76 429.841 194.614 436.67 192.932C450.487 189.525 464.675 187.827 478.91 187.874C505.827 187.874 536.774 194.536 554.306 216.828C544.301 198.869 524.066 189.125 504.784 184.702C482.383 179.843 459.159 180.265 436.946 185.931C431.941 187.155 427.003 188.634 422.143 190.358C419.325 191.384 416.544 192.525 413.779 193.739C411.784 194.614 408.18 197.286 405.883 197.119C402.357 196.838 401.758 192.921 404.018 190.791C407.414 187.489 414.732 185.937 419.158 184.405V184.4C440.794 176.989 463.726 174.098 486.522 175.911C509.856 177.775 535.053 185.244 549.992 204.359C540.471 187.332 521.601 177.593 503.325 172.943C481.976 167.797 459.737 167.541 438.273 172.193C433.231 173.239 428.247 174.547 423.341 176.073C420.856 176.859 418.393 177.677 415.872 178.594C413.799 179.38 410.685 181.489 408.403 181.021V181.026C407.143 180.729 406.148 179.75 405.841 178.489C405.528 177.229 405.95 175.901 406.929 175.052C409.841 172.156 417.476 170.963 421.304 169.823C442.263 163.599 464.241 161.568 485.981 163.849C508.064 166.276 531.361 173.875 545.565 191.849C525.981 156.87 474.633 152.651 439.539 158.619C435.096 159.364 430.69 160.307 426.325 161.437C422.143 162.521 416.992 165.396 412.622 165.562V165.567C411.159 165.802 409.721 165.031 409.102 163.682C408.487 162.333 408.841 160.739 409.971 159.781C412.435 157.333 419.305 156.588 422.628 155.75C442.857 150.521 463.888 149.146 484.622 151.698C505.716 154.515 527.685 162.187 541.33 179.458C529.252 157.952 503.194 148.338 480.085 145.182C466.819 143.494 453.388 143.567 440.137 145.406C433.58 146.286 427.09 147.593 420.705 149.327C417.736 150.114 410.049 152.406 411.913 146.098C463.544 114.104 533.413 134.9 559.767 189.218C566.543 203.27 570.069 218.661 570.09 234.26C514.726 212.566 453.907 208.989 396.369 224.03L399.466 209.098ZM387.127 251.734C395.096 249.083 403.163 246.713 411.393 244.807C414.101 244.172 418.637 242.177 420.82 244.807C423.002 247.437 421.117 249.734 418.71 250.781C415.351 252.219 411.018 252.479 407.513 253.411C403.221 254.51 398.966 255.766 394.747 257.146C392.283 257.911 388.679 260.094 386.237 258.302H386.231C385.085 257.516 384.471 256.156 384.638 254.776C384.809 253.396 385.731 252.224 387.033 251.734L387.127 251.734ZM330.753 278.089C337.872 273.563 345.231 269.427 352.799 265.698C355.299 264.464 359.237 261.5 361.966 263.61C364.69 265.719 363.383 268.349 361.273 269.917C358.398 272.12 354.216 273.292 350.93 274.974C347.049 277.026 343.221 279.183 339.45 281.433C337.247 282.776 334.336 285.745 331.497 284.776C330.148 284.297 329.185 283.089 329.028 281.667C328.867 280.245 329.539 278.855 330.752 278.089L330.753 278.089ZM283.471 318.485C289.102 312.157 295.075 306.141 301.373 300.474C303.237 298.719 306.003 295.115 308.987 295.865C311.972 296.61 312.289 299.599 310.852 301.875C309.154 304.729 304.544 307.474 302.133 309.844C299.388 312.438 296.721 315.125 294.107 317.854C292.07 319.985 289.326 324.703 286.154 324.703H286.159C284.706 324.662 283.409 323.787 282.831 322.453C282.253 321.12 282.503 319.573 283.472 318.485L283.471 318.485ZM248.002 369.37C252.07 361.901 256.429 354.662 261.07 347.641C262.528 345.474 264.189 341.386 267.247 341.334C270.309 341.276 271.393 344.151 270.663 346.651C269.747 349.823 265.997 353.709 264.226 356.49C262.19 359.698 260.21 362.969 258.309 366.25C256.851 368.735 255.341 373.625 252.502 374.667V374.672C251.033 375.229 249.377 374.813 248.351 373.625C247.325 372.443 247.148 370.74 247.908 369.37L248.002 369.37ZM241.189 400.209C240.018 402.907 238.867 405.62 237.736 408.35C236.861 410.495 236.148 414.157 234.565 415.818C231.445 419.084 227.528 415.969 228.2 412.084L228.195 412.079C228.94 409.49 229.95 406.99 231.221 404.615C232.19 402.245 233.085 398.756 234.674 396.756C237.252 393.454 242.96 395.954 241.096 400.209H241.189ZM307.121 456.808L284.367 434.146L316.96 401.553C327.335 415.444 323.21 438.813 307.028 456.808H307.121ZM346.209 456.808L331.444 442.062V442.057C340.704 435.948 350.684 431.005 361.157 427.349C358.986 438.38 353.772 448.578 346.116 456.808L346.209 456.808ZM402.564 297.781C354.324 313.281 313.08 345.276 286.075 388.145C259.064 431.014 248.012 482.025 254.851 532.238C259.09 564.738 271.069 594.957 288.168 622.79C267.971 593.389 253.933 561.192 249.304 525.498H249.309C241.736 467.102 258.408 408.16 295.435 362.378C332.465 316.597 386.623 287.977 445.315 283.17C492.112 279.212 538.893 290.967 578.257 316.586C551.82 301.54 522.569 292.108 492.325 288.873C462.08 285.638 431.492 288.675 402.476 297.79L402.564 297.781ZM537.857 375.77H537.852C537.509 377.385 536.941 378.947 536.175 380.416C533.581 383.848 530.576 380.994 527.571 379.239C519.357 374.536 511.071 369.963 502.707 365.52C485.456 356.302 467.91 347.416 449.9 339.739C465.843 349.932 482.474 359.078 499.198 367.89C507.437 372.218 515.724 376.426 524.062 380.509C526.958 381.926 533.395 383.442 533.562 387.171C533.307 388.999 532.734 390.77 531.864 392.4C507.411 378.285 482.213 365.515 456.374 354.135C480.364 369.285 505.255 382.963 530.911 395.088C530.145 397.234 529.436 401.828 527.082 402.833C524.728 403.843 520.718 400.5 518.624 399.38C515.265 397.515 511.884 395.812 508.489 394.062C494.338 386.765 480.062 379.614 465.39 373.359C474.911 379.443 484.707 385.099 494.567 390.589C499.197 393.188 503.859 395.735 508.546 398.224C511.16 399.63 513.78 401.026 516.405 402.406C518.681 403.599 522.343 404.719 524.228 406.459C527.124 409.146 523.89 416.297 522.192 419.318C520.327 422.75 517.64 421.182 514.723 420.084C493.296 412.354 469.92 406.662 454.207 388.928C443.634 376.985 437.41 361.813 436.551 345.886C436.363 342.105 436.494 338.313 436.942 334.553C437.369 330.818 437.671 324.881 439.723 321.73C441.494 319.006 443.212 319.865 445.322 321.058C461.452 329.329 477.056 338.902 492.848 347.787L523.875 365.241C526.172 366.569 539.255 371.642 537.76 375.772L537.857 375.77ZM665.909 380.38C650.669 376.265 634.592 376.494 619.477 381.036C604.363 385.577 590.821 394.249 580.379 406.082C558.128 431.618 553.909 468.113 567.462 498.817C547.769 467.738 552.754 425.812 577.223 398.858C601.993 371.566 642.78 362.832 676.363 378.328C694.316 386.479 708.717 400.844 716.925 418.776C705.238 400.125 687.065 386.448 665.909 380.38L665.909 380.38ZM719.483 492.38C708.061 487.692 696.316 485.156 684.237 482.765C699.488 480.078 721.273 484.63 729.893 498.744H729.899C726.649 496.275 723.159 494.145 719.482 492.379L719.483 492.38Z" fill="black"/>
<path d="M399.826 774.249C402.795 759.541 400.967 744.29 396.951 729.973L397.904 730.421C418.623 720.025 445.279 698.686 440.691 672.202C435.54 642.338 395.888 639.738 372.426 644.614C341.603 651.052 303.28 673.078 302.404 708.265C301.883 727.754 304.55 745.858 313.102 763.629C319.821 777.593 329.566 790.863 342.597 799.525C354.466 807.421 369.457 810.613 382.299 802.957C392.378 796.895 397.341 785.301 399.826 774.249L399.826 774.249ZM435.555 688.233C412.055 681.53 379.086 680.394 357.154 692.9C381.419 686.29 408.299 689.67 432.457 695.254C429.545 700.41 425.926 705.139 421.702 709.29C398.795 701.055 373.691 695.175 349.202 697.456C371.488 702.592 393.628 708.17 415.488 714.872V714.867C410.035 719.299 404.124 723.122 397.848 726.273C379.375 717.185 360.13 709.763 340.332 704.101C357.27 715.221 375.192 724.768 393.868 732.623C395.306 737.742 396.342 742.966 396.967 748.248C376.603 739.701 356.852 729.696 337.232 719.597C353.716 736.4 375.722 748.196 397.56 756.447L397.566 756.442C397.764 762.155 397.31 767.874 396.222 773.483C375.315 762.285 353.962 748.004 340.373 728.196C348.904 751.696 372.966 769.727 394.206 780.91V780.915C392.143 787.43 388.315 793.248 383.138 797.712C360.737 776.619 338.06 750.671 329.993 720.207C329.993 736.54 337.738 753.061 346.384 766.671C354.8 779.686 365.009 791.452 376.696 801.635C361.165 808.166 344.832 798.442 334.097 787.599C319.852 773.187 310.764 753.459 307.217 733.635C303.951 715.307 304.472 695.927 316.55 680.885C329.764 664.271 350.264 653.615 370.686 648.797C389.932 644.261 417.353 643.589 431.353 660.334C402.14 660.948 364.337 668.735 344.254 692.235C370.39 673.995 404.604 669.052 435.724 667.407V667.402C438.145 674.136 438.088 681.506 435.552 688.199L435.555 688.233Z" fill="black"/>
</svg>
