<svg width="934" height="934" viewBox="0 0 934 934" fill="none" xmlns="http://www.w3.org/2000/svg">
<path d="M482.854 515.929C509.359 496.648 479.458 455.523 452.99 474.861C426.52 494.2 456.328 535.231 482.854 515.929Z" fill="black"/>
<path d="M412.76 535.476C435.161 566.372 480.463 572.549 510.348 548.544C540.233 524.538 544.488 479.476 519.27 450.486C463.89 386.929 363.336 467.528 412.759 535.476L412.76 535.476ZM436.577 452.315C496.536 408.711 558.14 509.549 491.796 542.851C435.145 571.356 385.156 489.725 436.583 452.315H436.577Z" fill="black"/>
<path d="M789.187 394.716C771.285 394.398 762.061 396.58 745.337 400.523C730.911 403.997 717.187 400.914 702.739 405.898C700.697 400.919 698.515 395.976 696.187 391.059C698.296 387.195 683.364 367.669 681.255 364.253H681.26C675.046 354.602 668.187 345.389 660.724 336.665C654.078 328.842 645.792 322.274 639.333 314.43C633.25 307.112 630.375 298.79 622.53 292.383C613.812 285.18 604.946 285.139 595.093 281.743C584.098 278.008 573.624 270.243 562.724 265.821C555.5 262.858 505.734 243.743 502.136 249.66C496.922 248.952 491.662 248.395 486.365 247.999C482.204 236.051 483.287 228.155 482.146 215.78C481.323 206.728 477.256 199.332 475.126 190.411C472.995 181.489 475.422 172.619 474.115 163.645C472.865 155.02 468.516 146.265 465.698 138C465.829 147.484 466.818 157.005 464.709 166.151C462.844 174.494 458.547 181.755 457.672 190.213C456.553 201.005 458.251 208.88 455.021 219.296C451.605 230.291 449.553 236.547 449.719 248.004C444.308 248.379 438.938 248.931 433.61 249.665C429.709 243.54 379.886 262.994 372.907 265.832C361.876 270.311 351.553 277.702 340.522 281.775C329.491 285.843 320.23 285.509 310.918 294.186C303.803 300.759 300.147 309.717 293.877 316.774C287.028 324.425 279.407 331.337 272.819 339.285C268.022 345.092 234.293 385.952 238.83 392.577C236.533 397.431 234.366 402.358 232.392 407.38C219.757 407.734 212.548 404.317 200.434 401.666C191.548 399.801 183.262 401.385 174.131 400.734C165 400.083 157.328 395.135 148.276 393.619C139.688 392.218 130.058 393.619 121.287 393.916C130.376 396.64 139.751 398.562 147.85 403.249C155.204 407.598 160.918 413.833 168.662 417.213C178.631 421.542 186.714 422.307 195.599 428.411C205.063 435 210.402 438.844 221.38 442.13L221.37 442.135C215.646 466.37 213.521 491.312 215.057 516.166C215.844 528.858 219.854 541.644 220.323 554.192C220.792 566.734 217.823 576.11 224.281 588.37C228.969 597.219 236.099 603.063 240.579 612.13C245.574 622.39 251.261 632.302 257.6 641.791C270.913 661.551 286.923 679.348 305.163 694.671C301.543 706.9 296.074 712.702 289.725 723.458C285.132 731.296 284.127 739.698 280.637 748.171C277.147 756.645 270.033 762.452 265.834 770.572C261.819 778.302 260.235 787.932 257.715 796.332C263.147 788.53 267.886 780.223 274.944 774.046C281.381 768.447 289.059 764.957 294.709 758.587C301.912 750.488 305.162 743.04 313.803 736.504C323.021 729.562 328.324 725.676 334.896 716.27H334.901C354.989 728.697 376.724 738.239 399.469 744.624C411.209 747.927 423.062 749.348 434.938 751.869C446.136 754.239 455.865 760.343 467.772 760.328C479.683 760.307 489.386 754.073 500.496 751.89C511.064 749.802 521.646 748.437 532.08 745.692H532.075C555.804 739.448 578.501 729.78 599.444 716.999C609.803 724.338 613.537 731.374 621.679 740.816C627.616 747.686 635.252 751.342 642.209 757.352C649.173 763.363 652.329 771.988 658.616 778.54C664.908 785.093 673.231 789.441 680.381 794.499C674.782 786.864 668.418 779.696 664.813 771.035C661.527 763.118 660.745 754.738 656.527 747.347C651.167 737.92 645.157 732.415 641.74 722.164C638.12 711.206 636.141 704.935 629.308 695.675V695.68C655.948 673.607 677.813 646.331 693.563 615.524C698.734 605.368 706.125 598.368 711.443 588.514C717.172 577.873 715.812 568.93 716.036 557.544C716.297 545.279 719.396 532.68 720.364 520.211C722.411 493.586 720.26 466.799 713.979 440.842C724.078 433.133 731.916 431.675 743.359 426.727C751.703 423.123 757.474 416.946 765.276 412.148C773.078 407.351 782.26 406.867 790.402 402.815C798.188 398.95 805.167 392.117 812.147 386.82L789.187 394.716ZM665.989 466.935C678.703 457.247 688.968 452.877 704.125 448.137C705.224 453.101 706.198 458.106 706.98 463.184C691.537 473.413 672.589 476.908 654.51 472.856C635.229 468.132 615.089 457.924 623.448 436.158C628.317 423.783 636.687 413.101 647.53 405.409C658.369 397.711 671.218 393.341 684.504 392.831C687.228 398.305 689.754 403.909 692.082 409.634C661.019 409.951 634.218 411.498 627.327 449.915C637.744 460.092 651.504 466.144 666.046 466.942L665.989 466.935ZM630.672 558.404C609.708 551.404 576.333 556.873 569.073 529.321C588.079 514.295 613.147 531.076 630.245 541.733C643.313 549.852 660.464 558.535 675.193 563.159C659.511 563.201 646.464 558.258 630.729 558.352L630.672 558.404ZM568.959 605.707C566.766 613.769 560.938 620.343 553.199 623.488C545.459 626.634 536.693 625.988 529.501 621.743C517.272 610.191 512.012 628.613 503.365 633.837C489.163 642.425 495.042 626.222 491.678 615.597L491.683 615.602C526.667 608.555 556.876 586.675 574.47 555.623C578.407 558.478 590.391 559.951 592.09 564.212C595.262 572.144 583.131 574.014 577.303 577.113C563.735 584.316 572.189 593.258 568.959 605.706L568.959 605.707ZM382.665 623.737C377.895 621.742 373.79 618.425 370.848 614.169C367.91 609.914 366.249 604.904 366.072 599.732L365.009 600.18C363.832 593.571 369.749 589.784 366.874 583.196C363.999 576.608 353.04 577.316 348.019 573.863C332.003 562.665 351.941 562.795 361.311 555.999C379.133 587.139 409.66 608.957 444.899 615.733C443.664 619.765 445.737 637.088 442.138 639.291C436.279 642.838 426.68 630.124 423.472 627.379C414.435 619.504 412.961 620.718 402.357 623.812C395.732 625.754 389.44 626.468 382.664 623.739L382.665 623.737ZM292.149 560.701C280.8 562.753 272.775 562.045 261.461 566.113C268.045 560.998 275.336 556.873 283.117 553.868C290.117 550.883 295.456 545.618 302.268 542.404C320.935 533.519 346.58 513.732 366.669 529.545C358.846 559.842 315.295 552.378 292.169 560.701L292.149 560.701ZM417.775 391.848H417.78C449.608 376.608 486.649 376.697 518.411 392.093C514.77 416.358 529.275 426.978 551.301 416.249C575.489 441.837 586.645 477.082 581.599 511.931C557.463 515.905 551.735 532.953 568.698 550.629C552.031 580.899 522.692 602.123 488.728 608.493C477.53 587.138 459.088 587.045 447.884 608.493C413.66 602.394 384.004 581.201 367.155 550.795C384.103 533.025 378.353 515.889 354.087 512.082C349.087 477.025 360.394 441.609 384.775 415.931C406.39 426.494 421.306 415.931 417.796 391.849L417.775 391.848ZM566.961 423.395C564.149 419.535 561.112 415.848 557.868 412.342C567.519 405.269 573.269 385.853 579.258 405.045C582.488 415.332 575.805 429.311 591.576 429.311H591.581C597.915 429.774 603.878 432.483 608.388 436.946C612.904 441.415 615.674 447.347 616.195 453.676C616.721 460.004 614.971 466.311 611.258 471.462C609.763 473.572 605.919 475.624 604.93 477.697C599.086 489.832 611.872 500.098 614.263 512.754C615.831 521.061 591.399 511.561 589.211 511.52C593.419 480.38 585.445 448.812 566.96 423.394L566.961 423.395ZM536.404 378.592C543.664 373.42 546.243 368.566 552.044 362.259C556.32 357.613 562.388 354.79 566.68 350.274C576.368 339.915 587.044 330.003 595.107 318.258C591.841 328.899 588.909 333.19 583.628 342.227C579.893 348.613 578.81 356.003 575.039 362.367C564.456 380.231 557.29 410.898 531.096 409.425L531.102 409.43C527.232 398.899 529.253 387.107 536.404 378.466L536.404 378.592ZM536.404 268.587V268.592C550.336 272.717 563.873 278.097 576.836 284.665C569.367 287.41 562.8 295.321 554.601 292.316C548.648 289.983 541.497 273.519 536.461 268.461L536.404 268.587ZM479.117 651.867C479.305 656.908 476.654 660.976 475.57 665.831C474.284 671.674 475.477 677.159 474.711 683.081C473.274 694.409 469.951 701.597 470.289 713.545H470.284C467.513 705.691 465.867 697.483 465.393 689.165C464.649 681.42 461.305 674.436 460.482 666.764C458.242 646.045 446.503 616.529 468.268 602.196C488.804 615.472 478.576 633.279 479.117 651.868L479.117 651.867ZM346.451 511.72C332.601 512.038 312.253 528.876 321.716 503.6C325.096 494.564 333.513 488.668 331.143 478.96C330.19 475.132 324.2 471.663 322.372 468.116V468.111C318.841 461.299 318.419 453.294 321.211 446.147C324.002 439.001 329.737 433.402 336.951 430.778C342.852 428.632 348.972 430.012 352.388 423.835C355.935 417.377 352.388 407.559 355.19 400.278C362.248 381.611 369.212 405.075 378.264 411.778H378.258C353.31 438.695 341.649 475.33 346.452 511.721L346.451 511.72ZM405.065 409.053C380.8 410.209 370.268 382.023 362.56 363.356C356.701 349.153 347.815 332.012 338.461 319.768C345.326 324.497 351.461 330.205 356.659 336.721C361.622 342.487 368.252 346.055 373.461 351.544C387.497 366.716 414.139 385.101 405.065 409.017V409.053ZM382.664 290.387C377.977 298.933 363.997 286.465 358.659 284.543C371.622 277.97 385.153 272.584 399.091 268.455C392.612 274.96 387.085 282.345 382.664 290.387V290.387ZM411.451 716.333C423.06 711.385 425.32 734.197 428.977 739.667C410.305 736.651 392.051 731.437 374.603 724.14C387.295 723.999 399.843 721.348 411.504 716.333L411.451 716.333ZM560.931 724.12H560.926C543.472 731.422 525.212 736.635 506.53 739.65C511.795 731.827 510.785 717.51 521.462 716.224C532.795 714.88 548.55 724.01 560.983 724.119L560.931 724.12ZM666.436 362.426C659.941 358.916 647.769 357.593 642.395 353.317C633.53 346.15 639.166 340.249 639.614 330.244L639.608 330.249C649.478 340.181 658.468 350.946 666.488 362.426L666.436 362.426ZM449.863 259.353C439.67 288.676 434.035 315.353 467.879 333.197C477.551 328.061 490.035 317.833 493.581 306.88C496.42 298.109 493.113 296.015 491.134 287.114C489.154 278.208 490.144 268.786 490.274 259.562C495.144 260.01 499.998 260.588 504.779 261.427L504.785 261.422C509.805 279.099 507.462 298.052 498.285 313.968C493.488 322.239 479.451 340.458 468.066 340.734C477.717 340.734 484.118 345.812 490.149 352.739C498.998 362.895 496.571 362.78 510.513 360.353C515.294 359.53 529.742 355.687 532.914 360.78C535.81 365.468 522.294 379.035 520.351 384.75V384.755C487.357 369.203 449.163 369.11 416.097 384.495C413.409 376.708 397.597 365.511 405.326 359.052C412.456 353.114 427.873 365.677 435.19 363.552C449.378 359.39 448.258 340.797 467.69 340.645C457.07 340.385 443.982 324.219 438.903 316.229H438.909C428.617 299.875 425.731 279.932 430.955 261.328C437.19 260.375 443.497 259.646 449.882 259.182L449.863 259.353ZM296.023 330.285C296.45 340.347 302.106 346.17 293.221 353.337C287.918 357.613 275.694 358.936 269.194 362.425H269.199C277.178 350.957 286.126 340.196 295.948 330.264L296.023 330.285ZM232.168 445.55C257.048 464.102 280.699 477.581 307.991 450.608C305.996 439.816 299.928 424.848 290.517 418.186C283.049 412.869 280.085 415.369 271.028 414.546C261.976 413.723 253.236 409.973 244.487 407.077C246.367 402.634 248.367 398.28 250.497 394.009V394.014C263.669 394.441 276.429 398.665 287.257 406.176C298.08 413.686 306.508 424.165 311.517 436.348C319.975 457.405 302.465 468.082 283.162 473.306C264.48 478.28 244.558 475.051 228.397 464.442C229.355 458.083 230.564 451.791 232.017 445.573L232.168 445.55ZM225.673 500.633C225.673 495.779 225.84 490.961 226.121 486.164C230.21 495.648 243.033 506.232 245.386 515.19C248.189 525.888 234.298 530.273 228.584 537.701V537.706C226.667 525.441 225.693 513.05 225.672 500.633L225.673 500.633ZM268.605 613.06C280.907 612.107 277.735 645.352 280.027 653.398V653.403C269.418 640.398 260.178 626.33 252.459 611.419C257.725 612.919 263.214 613.477 268.678 613.065L268.605 613.06ZM369.704 636.414C358.897 634.919 342.824 635.893 333.548 642.685C326.079 648.138 327.574 651.852 323.954 660.253C320.334 668.654 314.136 675.654 308.667 683.045C304.933 679.795 301.329 676.42 297.824 672.967H297.819C304.168 655.738 317.193 641.8 333.955 634.306C342.559 630.415 351.897 628.431 361.34 628.483C373.434 628.764 377.58 633.17 380.829 644.535C384.449 657.457 384.194 671.16 380.084 683.931C375.98 696.707 368.21 707.993 357.735 716.384C352.11 713.499 346.631 710.384 341.287 707.051C366.418 688.853 386.896 671.009 369.776 636.415L369.704 636.414ZM622.597 686.576C613.806 656.712 602.941 631.992 564.957 637.034C559.785 647.357 553.89 668.414 560.551 679.316C562.942 683.238 570.629 685.737 573.952 688.779C580.223 694.545 584.65 702.779 589.556 709.853C585.28 712.353 580.916 714.743 576.489 716.983C557.505 697.514 546.082 673.546 553.53 646.275C559.504 624.4 579.983 626.526 598.478 634.03C616.295 641.348 630.186 655.869 636.707 673.994C632.212 678.4 627.535 682.619 622.671 686.65L622.597 686.576ZM655.488 653.425C658.16 644.092 655.488 629.253 658.868 620.946C663.368 610.082 672.999 614.264 683.134 611.41V611.405C675.399 626.331 666.134 640.415 655.488 653.421L655.488 653.425ZM693.384 525.821C681.176 518.915 706.097 494.086 709.493 486.133H709.488C710.514 503.352 709.712 520.633 707.103 537.69C703.353 532.867 698.691 528.831 693.379 525.815L693.384 525.821Z" fill="black"/>
</svg>
